<svg width="56" height="86" viewBox="0 0 56 86" fill="none" xmlns="http://www.w3.org/2000/svg">
<path d="M45.2719 -6.10352e-05L35.5635 27.1112H30.1689L39.8491 0.0220821V-6.10352e-05H45.2719Z" fill="#9871F3"/>
<path d="M39.8495 -6.10352e-05V0.0220821L30.1694 27.1112H24.8428L34.5228 0.0220821V-6.10352e-05H39.8495Z" fill="#F0F0F0"/>
<path d="M34.5222 0V0.0221431L24.8421 27.1112H19.4004L29.1089 0H34.5222Z" fill="#6F9DE2"/>
<path d="M39.355 27.5149C40.0679 29.1049 40.4638 30.8163 40.527 32.5529C36.7114 30.6034 32.3879 29.5039 27.8089 29.5039C22.9744 29.5039 18.4269 30.7295 14.46 32.8841C14.4805 31.0339 14.8827 29.2058 15.6399 27.5148L15.9932 26.7278C16.3875 25.846 17.2078 25.2293 18.1652 25.0953L19.2078 24.9486C24.7064 24.1788 30.2885 24.1788 35.7887 24.9486L36.8297 25.0953C37.7872 25.2294 38.6074 25.846 39.0018 26.7278L39.355 27.5149ZM36.5489 28.2893V27.2546C36.5489 26.9549 36.3059 26.7121 36.0063 26.7121H18.9885C18.6888 26.7121 18.4458 26.955 18.4458 27.2546V28.2893C18.4458 28.5906 18.6888 28.8335 18.9885 28.8335H36.0063C36.306 28.8335 36.5489 28.5907 36.5489 28.2893Z" fill="#FDBC62"/>
<path d="M9.69043 0L19.3989 27.1112H24.7933L15.1133 0.0221431V0H9.69043Z" fill="#6F9DE2"/>
<path d="M15.1143 0V0.0221431L24.7943 27.1112H30.121L20.4409 0.0221431V0H15.1143Z" fill="#F0F0F0"/>
<path d="M20.4404 0V0.0221431L30.1206 27.1112H35.5624L25.8539 0H20.4404Z" fill="#9871F3"/>
<path d="M40.7172 32.553C49.7885 37.184 56 46.618 56 57.5032C56 72.9673 43.4633 85.504 27.9993 85.504C12.5351 85.504 0 72.9674 0 57.5032C0 46.8735 5.92291 37.6272 14.6503 32.8842C18.6173 30.7295 23.1647 29.504 27.9993 29.504C32.5782 29.504 36.9017 30.6033 40.7172 32.553Z" fill="#EDAC55"/>
<path d="M27.9992 83.2726C21.1161 83.2726 14.6453 80.592 9.77849 75.7248C4.91167 70.8577 2.23145 64.3864 2.23145 57.5032C2.23145 48.0474 7.39803 39.3655 15.7149 34.8456C19.4609 32.811 23.7088 31.7355 27.9992 31.7355C32.1221 31.7355 36.0597 32.6793 39.7028 34.5408C43.8692 36.6678 47.3839 39.8919 49.8674 43.8648C52.4195 47.9475 53.7685 52.6636 53.7685 57.5033C53.7685 64.3864 51.088 70.8576 46.2208 75.7249C41.3535 80.5921 34.8823 83.2726 27.9992 83.2726Z" fill="#FDBC62"/>
<path d="M23.4245 33.0072C23.4222 33.0089 23.4223 33.0106 23.4202 33.0123C23.2997 33.1202 21.5922 34.6907 20.9222 36.057C20.2262 37.4722 18.0629 38.8908 18.0626 38.8913C18.0588 38.8916 18.1339 36.7247 19.0415 35.7306C20.124 34.5312 23.3242 33.0514 23.4245 33.0072Z" fill="#C49047"/>
<path d="M22.7283 34.1383C22.3418 35.0772 22.1175 35.8866 21.5563 36.9252C21.2291 37.5311 19.6744 38.5745 18.7348 38.7998C18.3593 38.9397 18.0625 38.8908 18.0625 38.8908C18.0628 38.8903 20.2259 37.4718 20.922 36.0565C21.592 34.6902 23.2993 33.1198 23.4201 33.0119C23.3678 33.0814 22.9308 33.6487 22.7283 34.1383Z" fill="#FFDEAE"/>
<path d="M25.9619 37.4893C25.9591 37.4897 25.9576 37.4908 25.9549 37.4911C25.7858 37.5142 23.3555 37.8641 21.8065 38.6004C20.2013 39.3647 17.5469 39.3131 17.5469 39.3127C17.5447 39.3121 19.3209 37.615 20.7394 37.3066C22.4433 36.9325 25.8546 37.4723 25.9619 37.4893Z" fill="#C49047"/>
<path d="M24.5877 38.0317C23.581 38.5841 22.7881 39.1174 21.5724 39.648C20.8633 39.9583 18.9346 39.945 18.093 39.6089C17.7163 39.5146 17.5469 39.3126 17.5469 39.3126C17.5469 39.313 20.2015 39.3646 21.8065 38.6003C23.3554 37.864 25.7857 37.5141 25.9549 37.491C25.8639 37.5194 25.1131 37.7441 24.5877 38.0317Z" fill="#FFDEAE"/>
<path d="M18.1901 36.0875C18.1884 36.0895 18.1886 36.0911 18.1868 36.093C18.0861 36.2136 16.6761 37.9634 16.2715 39.3859C15.8491 40.859 13.9632 42.5203 13.9633 42.5208C13.9595 42.5213 13.6069 40.3877 14.3221 39.3009C15.1712 37.9906 18.0971 36.143 18.1901 36.0875Z" fill="#C49047"/>
<path d="M17.7098 37.282C17.5038 38.2496 17.4361 39.0705 17.0759 40.1584C16.8654 40.793 15.5134 42.0096 14.6179 42.3478C14.2692 42.532 13.9629 42.521 13.9629 42.521C13.9626 42.5204 15.8488 40.8592 16.271 39.3861C16.6755 37.9637 18.0858 36.2138 18.1863 36.0932C18.1472 36.1678 17.8181 36.7774 17.7098 37.282Z" fill="#FFDEAE"/>
<path d="M21.5981 40.1661C21.5956 40.1667 21.5941 40.1681 21.5915 40.1687C21.4267 40.2122 19.0613 40.8552 17.6546 41.77C16.1979 42.7186 13.5327 42.9992 13.5322 42.9989C13.5295 42.9985 14.9729 41.1126 16.3342 40.6336C17.9683 40.0542 21.4884 40.1622 21.5981 40.1661Z" fill="#C49047"/>
<path d="M20.3272 40.8679C19.4266 41.5342 18.7367 42.1556 17.6246 42.8272C16.9764 43.2193 15.0455 43.4459 14.1371 43.2213C13.742 43.1759 13.5322 42.9989 13.5322 42.9989C13.5328 42.9992 16.198 42.7186 17.6546 41.77C19.0612 40.8553 21.4267 40.2122 21.5915 40.1688C21.5059 40.2079 20.7977 40.5206 20.3272 40.8679Z" fill="#FFDEAE"/>
<path d="M13.3034 39.9897C13.3022 39.992 13.3029 39.9935 13.3017 39.9957C13.2374 40.1306 12.3671 42.0801 12.3992 43.5216C12.427 45.0148 11.0744 46.9786 11.0756 46.9792C11.0721 46.98 10.0702 45.0046 10.4454 43.8244C10.8831 42.4026 13.2268 40.0607 13.3034 39.9897Z" fill="#C49047"/>
<path d="M13.1871 41.2257C13.2747 42.1915 13.4552 42.9904 13.4286 44.1033C13.4121 44.7525 12.4473 46.184 11.6681 46.6843C11.3808 46.9294 11.0752 46.9792 11.0752 46.9792C11.0743 46.9786 12.4269 45.0148 12.399 43.5216C12.3667 42.0801 13.2372 40.1306 13.3015 39.9957C13.2853 40.0746 13.1421 40.7219 13.1871 41.2257Z" fill="#FFDEAE"/>
<path d="M17.8958 43.2278C17.8933 43.2289 17.8924 43.2305 17.89 43.2317C17.7401 43.3051 15.5955 44.3825 14.4851 45.5352C13.3352 46.7297 10.7959 47.5224 10.7959 47.5224C10.7919 47.5224 11.6375 45.4301 12.8378 44.7043C14.2763 43.8276 17.7867 43.2447 17.8958 43.2278Z" fill="#C49047"/>
<path d="M16.8501 44.1485C16.1607 44.9632 15.6673 45.6943 14.7747 46.5559C14.2545 47.0589 12.4226 47.654 11.459 47.6171C11.0558 47.651 10.7948 47.5226 10.7949 47.5225C10.7956 47.5225 13.3347 46.7299 14.4846 45.5354C15.5951 44.3826 17.7396 43.3053 17.8895 43.2318C17.8165 43.2859 17.2105 43.7237 16.8501 44.1485Z" fill="#FFDEAE"/>
<path d="M9.77161 44.3561C9.77076 44.3584 9.77185 44.3598 9.77092 44.3621C9.72741 44.5013 9.16262 46.5098 9.42454 47.9317C9.68901 49.405 8.64948 51.4764 8.65079 51.4768C8.64777 51.4778 7.32837 49.6192 7.51519 48.4173C7.72546 46.9701 9.70542 44.4334 9.77161 44.3561Z" fill="#C49047"/>
<path d="M9.85003 45.588C10.091 46.5337 10.398 47.3061 10.5477 48.4091C10.6341 49.0524 9.89547 50.5601 9.19613 51.1292C8.94777 51.3989 8.65039 51.4772 8.65039 51.4772C8.64877 51.4766 9.68837 49.4052 9.42406 47.9319C9.16214 46.5099 9.72716 44.5016 9.77044 44.3624C9.76657 44.4416 9.72515 45.0946 9.85003 45.588Z" fill="#FFDEAE"/>
<path d="M14.8837 47.1207C14.8813 47.1221 14.881 47.1238 14.8786 47.1251C14.7397 47.2118 12.7606 48.4797 11.832 49.7252C10.8699 51.0157 8.4579 52.0408 8.45705 52.0411C8.45334 52.0412 8.96392 49.8911 10.0512 49.0594C11.3522 48.0556 14.7771 47.1477 14.8837 47.1207Z" fill="#C49047"/>
<path d="M13.9811 48.13C13.4186 49.0011 13.0403 49.7707 12.2835 50.7078C11.8426 51.2547 10.1058 52.0167 9.13632 52.0718C8.73853 52.1437 8.45703 52.0414 8.45703 52.0414C8.45781 52.0411 10.8698 51.016 11.832 49.7255C12.7604 48.48 14.7396 47.2121 14.8785 47.1254C14.8139 47.1857 14.2751 47.6759 13.9811 48.13Z" fill="#FFDEAE"/>
<path d="M7.09148 49.1217C7.09156 49.124 7.09256 49.1253 7.09233 49.1277C7.08397 49.2697 7.03086 51.3128 7.65069 52.6569C8.28445 54.0504 7.78424 56.2355 7.78641 56.2359C7.78447 56.2368 6.00581 54.6322 5.88395 53.4323C5.72144 51.9887 7.04371 49.207 7.09148 49.1217Z" fill="#C49047"/>
<path d="M7.47969 50.3075C7.95722 51.1896 8.4562 51.8932 8.88271 52.9447C9.13015 53.558 8.78144 55.1448 8.23602 55.8104C8.0595 56.1127 7.78566 56.236 7.78566 56.236C7.78334 56.2357 8.28378 54.0504 7.64994 52.6569C7.03003 51.3127 7.0833 49.2698 7.09158 49.1277C7.10746 49.2056 7.23125 49.8471 7.47969 50.3075Z" fill="#FFDEAE"/>
<path d="M12.8527 51.0072C12.8508 51.0088 12.8508 51.0105 12.8487 51.0122C12.7326 51.1184 11.0891 52.6647 10.4856 54.0258C9.8591 55.4358 7.74025 56.8161 7.73979 56.8165C7.73592 56.8171 7.6914 54.6385 8.55696 53.6566C9.5889 52.4723 12.7536 51.0497 12.8527 51.0072Z" fill="#C49047"/>
<path d="M12.2103 52.1327C11.8713 53.0704 11.6898 53.8807 11.1786 54.9141C10.8803 55.5169 9.35952 56.5332 8.41731 56.7397C8.0436 56.8724 7.73903 56.8168 7.73926 56.8168C7.73949 56.8164 9.85849 55.4361 10.4851 54.0261C11.0884 52.6648 12.732 51.1187 12.8482 51.0125C12.7992 51.0814 12.3879 51.6437 12.2103 52.1327Z" fill="#FFDEAE"/>
<path d="M5.56932 54.0342C5.56978 54.0366 5.57125 54.0376 5.57156 54.0399C5.59719 54.1799 6.04035 56.1838 6.97954 57.4072C7.94358 58.6762 7.98136 60.8926 7.98438 60.8926C7.98322 60.8935 5.83688 59.5849 5.42253 58.4294C4.90784 57.0406 5.54152 54.1245 5.56932 54.0342Z" fill="#C49047"/>
<path d="M6.24226 55.1344C6.9286 55.9255 7.59256 56.5391 8.26813 57.5052C8.66081 58.0688 8.70083 59.6752 8.32534 60.4085C8.2247 60.731 7.98516 60.8925 7.98516 60.8925C7.98214 60.8924 7.9442 58.676 6.98024 57.407C6.04113 56.1837 5.59789 54.1796 5.57227 54.0397C5.60695 54.1133 5.88481 54.7215 6.24226 55.1344Z" fill="#FFDEAE"/>
<path d="M11.7247 55.0209C11.7232 55.0228 11.7234 55.0244 11.7219 55.0264C11.6321 55.1474 10.3759 56.9045 10.1093 58.3275C9.83001 59.8017 8.07868 61.4689 8.07884 61.4694C8.07504 61.4701 7.49934 59.3412 8.116 58.2515C8.84662 56.9382 11.6359 55.0768 11.7247 55.0209Z" fill="#C49047"/>
<path d="M11.3581 56.2179C11.2473 57.1864 11.2626 58.0071 11.007 59.0957C10.858 59.7307 9.60509 60.9518 8.72745 61.2937C8.39137 61.4792 8.07813 61.4697 8.07813 61.4697C8.07789 61.4692 9.82923 59.802 10.1087 58.3278C10.3754 56.9046 11.6313 55.1478 11.7212 55.0267C11.689 55.1014 11.4167 55.7127 11.3581 56.2179Z" fill="#FFDEAE"/>
<path d="M5.49902 59.7559C5.50034 59.7581 5.50196 59.7589 5.50313 59.7609C5.57443 59.8902 6.67202 61.727 7.98818 62.7152C9.34296 63.7415 10.1165 65.8775 10.12 65.8771C10.1196 65.8776 7.61098 65.0496 6.82245 64.0205C5.85849 62.7853 5.50088 59.8481 5.49902 59.7559Z" fill="#C49047"/>
<path d="M6.5173 60.6765C7.44604 61.2969 8.29333 61.7524 9.26736 62.5467C9.83392 63.0102 10.4047 64.5543 10.2868 65.34C10.2971 65.6724 10.12 65.8771 10.12 65.8771C10.1163 65.8775 9.34253 63.7416 7.98798 62.7153C6.67183 61.7269 5.57423 59.89 5.50293 59.761C5.5613 59.8245 6.03334 60.3524 6.5173 60.6765Z" fill="#FFDEAE"/>
<path d="M11.8026 59.4438C11.8019 59.4461 11.8025 59.4475 11.8017 59.4498C11.7529 59.585 11.1103 61.5355 11.3229 62.9649C11.5379 64.4462 10.4036 66.4151 10.405 66.4157C10.4017 66.4167 9.13479 64.475 9.36992 63.2976C9.6388 61.88 11.7335 59.5158 11.8026 59.4438Z" fill="#C49047"/>
<path d="M11.8384 60.673C12.0484 61.6304 12.3322 62.4204 12.4438 63.5249C12.5081 64.1692 11.7032 65.6046 10.9716 66.1134C10.7093 66.3611 10.4043 66.4154 10.4043 66.4154C10.4031 66.415 11.537 64.4459 11.3223 62.9647C11.1097 61.5351 11.7523 59.5847 11.8011 59.4496C11.7945 59.5282 11.7294 60.1735 11.8384 60.673Z" fill="#FFDEAE"/>
<path d="M6.86426 64.6157C6.86565 64.6178 6.86728 64.6186 6.86875 64.6206C6.95027 64.7466 8.19349 66.5375 9.58939 67.4765C11.0268 68.4518 11.9673 70.5527 11.9705 70.5523C11.9704 70.5529 9.39251 69.8139 8.52199 68.8164C7.45931 67.6196 6.87324 64.7074 6.86426 64.6157Z" fill="#C49047"/>
<path d="M7.95647 65.4971C8.93592 66.0829 9.82052 66.507 10.8583 67.2646C11.4622 67.7067 12.1531 69.2251 12.0958 70.0116C12.1316 70.3423 11.97 70.5523 11.97 70.5523C11.9665 70.5527 11.0264 68.4518 9.58881 67.4765C8.19283 66.5375 6.94953 64.7467 6.86816 64.6206C6.93142 64.6818 7.44596 65.191 7.95647 65.4971Z" fill="#FFDEAE"/>
<path d="M13.1632 64.0876C13.1626 64.0898 13.1633 64.0912 13.1627 64.0935C13.1242 64.2297 12.6289 66.1943 12.9521 67.6106C13.2809 69.0787 12.2972 71.0783 12.2983 71.0788C12.2951 71.0798 10.8755 69.1894 11.0201 68.0089C11.1798 66.5878 13.0992 64.1615 13.1632 64.0876Z" fill="#C49047"/>
<path d="M13.2943 65.3106C13.5784 66.2569 13.9233 67.034 14.1198 68.1301C14.2336 68.7696 13.5376 70.2269 12.8439 70.7585C12.6001 71.0142 12.2988 71.0787 12.2988 71.0787C12.2977 71.0782 13.2815 69.0786 12.9527 67.6105C12.6294 66.1942 13.1249 64.2296 13.1633 64.0934C13.1625 64.172 13.147 64.8168 13.2943 65.3106Z" fill="#FFDEAE"/>
<path d="M9.61328 69.946C9.61529 69.9478 9.61739 69.948 9.6194 69.9498C9.74366 70.0526 11.5901 71.5012 13.2613 72.1003C14.9858 72.7241 16.6493 74.5539 16.6529 74.553C16.6535 74.5531 13.9416 74.4028 12.745 73.6317C11.2928 72.7085 9.65493 70.0316 9.61328 69.946Z" fill="#C49047"/>
<path d="M10.979 70.5519C12.1271 70.8988 13.1243 71.1121 14.3882 71.615C15.1241 71.9086 16.3365 73.2265 16.5722 74.0016C16.7284 74.3142 16.6527 74.5533 16.6527 74.5533C16.6492 74.5542 14.9856 72.7243 13.261 72.1005C11.5895 71.5013 9.74356 70.0527 9.61914 69.95C9.70206 69.9948 10.3803 70.3704 10.979 70.5519Z" fill="#FFDEAE"/>
<path d="M14.042 74.7382C14.0445 74.7396 14.0462 74.7395 14.0488 74.7409C14.196 74.8247 16.3554 75.9973 18.1324 76.3596C19.9678 76.7378 22.0341 78.321 22.0371 78.3199C22.0371 78.3199 19.3596 78.5408 18.0035 77.9435C16.3614 77.2298 14.1039 74.8161 14.042 74.7382Z" fill="#C49047"/>
<path d="M15.5244 75.1459C16.7311 75.3292 17.7572 75.4019 19.1132 75.7249C19.9031 75.9136 21.4054 77.0502 21.8234 77.7851C22.0517 78.0729 22.0361 78.3199 22.0361 78.3199C22.0333 78.3209 19.9667 76.7378 18.1314 76.3596C16.3545 75.9972 14.1949 74.8246 14.0479 74.7408C14.1401 74.7737 14.895 75.0497 15.5244 75.1459Z" fill="#FFDEAE"/>
<path d="M15.4194 68.0367C15.4195 68.0391 15.4209 68.0402 15.4211 68.0425C15.433 68.1825 15.6756 70.1887 16.5011 71.4888C17.3483 72.837 17.1539 74.9921 17.1565 74.9921C17.1548 74.9932 15.1121 73.4724 14.8143 72.2994C14.4398 70.8895 15.3833 68.1221 15.4194 68.0367Z" fill="#C49047"/>
<path d="M15.9881 69.189C16.6023 70.041 17.2125 70.7168 17.7988 71.7354C18.1393 72.3297 18.0134 73.8949 17.5543 74.5622C17.4182 74.8636 17.1573 74.9921 17.1573 74.9921C17.1549 74.9919 17.3493 72.8369 16.5019 71.4886C15.6763 70.1886 15.434 68.1823 15.4219 68.0424C15.4492 68.1184 15.6683 68.7445 15.9881 69.189Z" fill="#FFDEAE"/>
<path d="M18.9967 72.4816C18.9972 72.4835 18.9992 72.4843 18.9994 72.4864C19.0405 72.6054 19.6893 74.3068 20.6779 75.3287C21.6954 76.3893 21.9987 78.2811 22.0011 78.2809C22.0002 78.2815 19.9294 77.2165 19.4169 76.24C18.788 75.067 18.9841 72.5598 18.9967 72.4816Z" fill="#C49047"/>
<path d="M19.7361 73.4054C20.4476 74.0643 21.1165 74.5724 21.8386 75.3811C22.2586 75.853 22.4915 77.2244 22.246 77.8596C22.1957 78.1375 22.0016 78.281 22.0016 78.281C21.9994 78.2812 21.696 76.3892 20.6785 75.3288C19.69 74.3069 19.0411 72.6056 19 72.4865C19.0403 72.5485 19.3654 73.0614 19.7361 73.4054Z" fill="#FFDEAE"/>
<path d="M31.5615 33.0068C31.5638 33.0085 31.5637 33.0102 31.5658 33.0119C31.6862 33.1199 33.3938 34.6904 34.0638 36.0566C34.7598 37.4718 36.9231 38.8904 36.9231 38.8904C36.9272 38.8912 36.8521 36.7243 35.9445 35.7303C34.862 34.5309 31.6618 33.051 31.5615 33.0068Z" fill="#C49047"/>
<path d="M32.2572 34.1386C32.6437 35.0775 32.868 35.8869 33.4292 36.9255C33.7564 37.5314 35.3111 38.5748 36.2507 38.8001C36.6263 38.94 36.923 38.8911 36.923 38.8911C36.923 38.8911 34.7596 37.4721 34.0635 36.0569C33.3936 34.6905 31.6861 33.1201 31.5654 33.0122C31.6177 33.0817 32.0547 33.649 32.2572 34.1386Z" fill="#FFDEAE"/>
<path d="M29.0234 37.4892C29.0262 37.4896 29.0277 37.4908 29.0304 37.4911C29.1996 37.5141 31.6297 37.8641 33.1788 38.6003C34.784 39.3646 37.4384 39.3131 37.4384 39.3126C37.4406 39.3121 35.6644 37.6149 34.2459 37.3065C32.5421 36.9325 29.1307 37.4723 29.0234 37.4892Z" fill="#C49047"/>
<path d="M30.3965 38.0316C31.4032 38.5841 32.1961 39.1173 33.4118 39.648C34.1209 39.9582 36.0496 39.9449 36.8912 39.6088C37.2678 39.5146 37.4373 39.3125 37.4373 39.3125C37.4373 39.3129 34.7827 39.3645 33.1777 38.6003C31.6289 37.864 29.1985 37.514 29.0293 37.491C29.1203 37.5194 29.8711 37.7441 30.3965 38.0316Z" fill="#FFDEAE"/>
<path d="M36.793 36.0881C36.7947 36.0901 36.7945 36.0917 36.7963 36.0936C36.8969 36.2142 38.3069 37.964 38.7116 39.3865C39.134 40.8597 41.0199 42.5209 41.0197 42.5214C41.0236 42.5219 41.3761 40.3883 40.661 39.3015C39.8118 37.9912 36.8859 36.1436 36.793 36.0881Z" fill="#C49047"/>
<path d="M37.2734 37.2823C37.4794 38.2499 37.5472 39.0708 37.9073 40.1587C38.1177 40.7933 39.4697 42.0099 40.3653 42.3481C40.714 42.5323 41.0203 42.5213 41.0203 42.5213C41.0206 42.5207 39.1344 40.8595 38.7122 39.3864C38.3077 37.964 36.8974 36.2141 36.7969 36.0935C36.8359 36.1681 37.1651 36.7777 37.2734 37.2823Z" fill="#FFDEAE"/>
<path d="M33.3887 40.1665C33.3911 40.1672 33.3927 40.1686 33.3953 40.1692C33.5601 40.2126 35.9255 40.8557 37.3322 41.7704C38.7889 42.719 41.4541 42.9996 41.4546 42.9994C41.4572 42.9989 40.0139 41.113 38.6527 40.634C37.0185 40.0546 33.4985 40.1626 33.3887 40.1665Z" fill="#C49047"/>
<path d="M34.6597 40.8682C35.5604 41.5345 36.2502 42.1559 37.3624 42.8275C38.0105 43.2196 39.9415 43.4462 40.8499 43.2216C41.245 43.1762 41.4548 42.9992 41.4548 42.9992C41.4542 42.9995 38.789 42.7189 37.3323 41.7703C35.9258 40.8556 33.5603 40.2125 33.3955 40.1691C33.4812 40.2082 34.1893 40.5209 34.6597 40.8682Z" fill="#FFDEAE"/>
<path d="M41.6826 39.9893C41.6839 39.9916 41.6832 39.993 41.6842 39.9953C41.7486 40.1301 42.6189 42.0797 42.5867 43.5212C42.559 45.0144 43.9116 46.9782 43.9104 46.9788C43.9138 46.9796 44.9158 45.0042 44.5405 43.824C44.1029 42.4021 41.7592 40.0603 41.6826 39.9893Z" fill="#C49047"/>
<path d="M41.7998 41.2253C41.7121 42.191 41.5317 42.9899 41.5583 44.1029C41.5747 44.752 42.5396 46.1835 43.3188 46.6839C43.6061 46.929 43.9117 46.9788 43.9117 46.9788C43.9125 46.9782 42.56 45.0144 42.5878 43.5212C42.6201 42.0797 41.7497 40.1302 41.6853 39.9953C41.7016 40.0742 41.8449 40.7215 41.7998 41.2253Z" fill="#FFDEAE"/>
<path d="M37.0908 43.2271C37.0932 43.2283 37.0943 43.2298 37.0966 43.231C37.2464 43.3045 39.3911 44.3818 40.5014 45.5346C41.6514 46.7291 44.1906 47.5217 44.1911 47.5217C44.1947 47.5217 43.3491 45.4294 42.1488 44.7036C40.7102 43.827 37.1999 43.2441 37.0908 43.2271Z" fill="#C49047"/>
<path d="M38.1371 44.1477C38.8265 44.9625 39.3198 45.6935 40.2124 46.5551C40.7326 47.0581 42.5646 47.6532 43.5281 47.6163C43.9313 47.6502 44.1923 47.5218 44.1922 47.5217C44.1916 47.5217 41.6525 46.7291 40.5025 45.5346C39.3921 44.3818 37.2475 43.3045 37.0977 43.231C37.1707 43.2851 37.7766 43.7229 38.1371 44.1477Z" fill="#FFDEAE"/>
<path d="M45.2168 44.3562C45.2176 44.3585 45.2166 44.3599 45.2174 44.3622C45.2609 44.5014 45.8258 46.51 45.5638 47.9318C45.2993 49.4051 46.3389 51.4765 46.3375 51.477C46.3406 51.4779 47.66 49.6193 47.4731 48.4174C47.263 46.9702 45.283 44.4335 45.2168 44.3562Z" fill="#C49047"/>
<path d="M45.1371 45.5884C44.8962 46.5341 44.5892 47.3065 44.4395 48.4094C44.3531 49.0528 45.0917 50.5604 45.791 51.1295C46.0394 51.3993 46.3368 51.4775 46.3368 51.4775C46.3384 51.477 45.2988 49.4055 45.5631 47.9323C45.8251 46.5103 45.26 44.5019 45.2168 44.3627C45.2206 44.442 45.2621 45.095 45.1371 45.5884Z" fill="#FFDEAE"/>
<path d="M40.1016 47.1211C40.104 47.1225 40.1043 47.1242 40.1068 47.1255C40.2456 47.2121 42.2247 48.4801 43.1533 49.7256C44.1154 51.016 46.5274 52.0412 46.5283 52.0415C46.532 52.0416 46.0214 49.8914 44.9341 49.0598C43.6331 48.0559 40.2081 47.148 40.1016 47.1211Z" fill="#C49047"/>
<path d="M41.0038 48.1301C41.5663 49.0012 41.9446 49.7708 42.7014 50.7079C43.1423 51.2548 44.8791 52.0168 45.8487 52.0719C46.2464 52.1437 46.528 52.0414 46.528 52.0414C46.5271 52.0412 44.1151 51.016 43.153 49.7256C42.2246 48.48 40.2453 47.2122 40.1064 47.1255C40.1709 47.1857 40.7098 47.676 41.0038 48.1301Z" fill="#FFDEAE"/>
<path d="M47.8921 49.1216C47.892 49.1239 47.891 49.1251 47.8912 49.1275C47.8995 49.2696 47.9527 51.3127 47.3328 52.6568C46.6991 54.0503 47.1993 56.2354 47.1972 56.2358C47.1991 56.2367 48.9778 54.6321 49.0996 53.4321C49.2621 51.9886 47.9397 49.2069 47.8921 49.1216Z" fill="#C49047"/>
<path d="M47.5036 50.3074C47.0261 51.1895 46.5271 51.8931 46.1006 52.9446C45.8531 53.5579 46.2018 55.1447 46.7473 55.8103C46.9237 56.1126 47.1977 56.2359 47.1977 56.2359C47.2 56.2356 46.6995 54.0503 47.3333 52.6568C47.9533 51.3126 47.9 49.2697 47.8917 49.1276C47.8759 49.2054 47.7521 49.8469 47.5036 50.3074Z" fill="#FFDEAE"/>
<path d="M42.1309 51.0071C42.1328 51.0088 42.1328 51.0105 42.1349 51.0122C42.251 51.1183 43.8944 52.6646 44.498 54.0258C45.1245 55.4358 47.2433 56.816 47.2438 56.8165C47.2477 56.817 47.2922 54.6385 46.4266 53.6565C45.3947 52.4722 42.23 51.0496 42.1309 51.0071Z" fill="#C49047"/>
<path d="M42.7726 52.1322C43.1116 53.07 43.2931 53.8802 43.8043 54.9136C44.1026 55.5165 45.6234 56.5328 46.5655 56.7392C46.9393 56.8719 47.2438 56.8163 47.2438 56.8163C47.2434 56.8159 45.1244 55.4357 44.4979 54.0256C43.8945 52.6644 42.251 51.1182 42.1348 51.012C42.1839 51.0809 42.5951 51.6433 42.7726 52.1322Z" fill="#FFDEAE"/>
<path d="M49.416 54.0342C49.4156 54.0366 49.4141 54.0376 49.4138 54.0399C49.3882 54.1799 48.945 56.1838 48.0058 57.4072C47.0418 58.6762 47.004 60.8926 47.001 60.8926C47.0021 60.8935 49.1484 59.5849 49.5628 58.4294C50.0775 57.0406 49.4438 54.1245 49.416 54.0342Z" fill="#C49047"/>
<path d="M48.744 55.1346C48.0577 55.9256 47.3938 56.5393 46.7182 57.5053C46.3255 58.069 46.2855 59.6754 46.661 60.4087C46.7616 60.7312 47.0011 60.8926 47.0011 60.8926C47.0042 60.8926 47.0421 58.6762 48.0061 57.4072C48.9452 56.1838 49.3885 54.1798 49.4141 54.0399C49.3794 54.1135 49.1015 54.7217 48.744 55.1346Z" fill="#FFDEAE"/>
<path d="M43.2598 55.0206C43.2613 55.0225 43.261 55.0241 43.2626 55.0261C43.3524 55.1471 44.6086 56.9042 44.8751 58.3272C45.1545 59.8014 46.9058 61.4685 46.9057 61.4691C46.9094 61.4698 47.4852 59.3409 46.8685 58.2512C46.1378 56.9379 43.3485 55.0765 43.2598 55.0206Z" fill="#C49047"/>
<path d="M43.6259 56.2169C43.7366 57.1855 43.7213 58.0062 43.9768 59.0948C44.1259 59.7297 45.3788 60.9509 46.2564 61.2928C46.5926 61.4783 46.9057 61.4688 46.9057 61.4688C46.906 61.4683 45.1546 59.801 44.8751 58.3269C44.6085 56.9037 43.3526 55.1469 43.2627 55.0258C43.2948 55.1005 43.5673 55.7118 43.6259 56.2169Z" fill="#FFDEAE"/>
<path d="M49.4852 59.756C49.4839 59.7582 49.4822 59.759 49.4811 59.7611C49.4099 59.8903 48.3122 61.7271 46.996 62.7154C45.6412 63.7416 44.8677 65.8776 44.8643 65.8772C44.8646 65.8777 47.3732 65.0498 48.1617 64.0206C49.1257 62.7854 49.4833 59.8482 49.4852 59.756Z" fill="#C49047"/>
<path d="M48.4668 60.6765C47.538 61.2969 46.6907 61.7524 45.7167 62.5467C45.1501 63.0102 44.5794 64.5543 44.6972 65.34C44.687 65.6724 44.8641 65.8771 44.8642 65.8771C44.8677 65.8775 45.6415 63.7416 46.996 62.7153C48.3122 61.7269 49.4097 59.89 49.4811 59.761C49.4227 59.8245 48.9508 60.3524 48.4668 60.6765Z" fill="#FFDEAE"/>
<path d="M43.1836 59.4436C43.1844 59.4458 43.1838 59.4472 43.1844 59.4496C43.2332 59.5847 43.8759 61.5353 43.6633 62.9647C43.4484 64.446 44.5825 66.4149 44.5812 66.4154C44.5844 66.4164 45.8514 64.4748 45.6162 63.2974C45.3473 61.8797 43.2527 59.5155 43.1836 59.4436Z" fill="#C49047"/>
<path d="M43.1461 60.673C42.9361 61.6304 42.6524 62.4204 42.5407 63.5249C42.4765 64.1692 43.2814 65.6046 44.0129 66.1134C44.2752 66.3611 44.5802 66.4154 44.5802 66.4154C44.5815 66.415 43.4475 64.4459 43.6623 62.9647C43.8749 61.5351 43.2322 59.5847 43.1835 59.4496C43.19 59.5282 43.2552 60.1735 43.1461 60.673Z" fill="#FFDEAE"/>
<path d="M48.1209 64.6157C48.1195 64.6178 48.1179 64.6185 48.1164 64.6205C48.0349 64.7466 46.7917 66.5375 45.3958 67.4764C43.9584 68.4518 43.0179 70.5527 43.0146 70.5522C43.0148 70.5528 45.5927 69.8138 46.4632 68.8164C47.526 67.6196 48.1119 64.7073 48.1209 64.6157Z" fill="#C49047"/>
<path d="M47.0284 65.497C46.0489 66.0828 45.1643 66.507 44.1264 67.2645C43.5226 67.7066 42.8317 69.225 42.889 70.0115C42.8531 70.3422 43.0149 70.5522 43.0149 70.5522C43.0183 70.5526 43.9585 68.4518 45.396 67.4764C46.7919 66.5374 48.0353 64.7467 48.1167 64.6205C48.0535 64.6818 47.5389 65.191 47.0284 65.497Z" fill="#FFDEAE"/>
<path d="M41.8213 64.0875C41.8218 64.0897 41.8211 64.0912 41.8217 64.0935C41.8602 64.2296 42.3556 66.1942 42.0323 67.6106C41.7036 69.0786 42.6873 71.0782 42.6861 71.0788C42.6893 71.0798 44.109 69.1893 43.9643 68.0088C43.8047 66.5878 41.8852 64.1615 41.8213 64.0875Z" fill="#C49047"/>
<path d="M41.6913 65.3106C41.4073 66.2569 41.0624 67.034 40.8658 68.1301C40.7519 68.7697 41.4481 70.2269 42.1417 70.7586C42.3855 71.0143 42.6868 71.0788 42.6868 71.0788C42.6879 71.0782 41.7041 69.0787 42.0329 67.6106C42.3562 66.1942 41.8607 64.2297 41.8222 64.0935C41.8231 64.1721 41.8386 64.8168 41.6913 65.3106Z" fill="#FFDEAE"/>
<path d="M45.3726 69.9464C45.3707 69.9481 45.3686 69.9483 45.3666 69.9501C45.2423 70.0529 43.3959 71.5015 41.7247 72.1007C40.0002 72.7244 38.3366 74.5542 38.333 74.5533C38.333 74.5533 41.0444 74.4031 42.2409 73.632C43.6931 72.7088 45.3309 70.0319 45.3726 69.9464Z" fill="#C49047"/>
<path d="M44.0065 70.5522C42.8583 70.8991 41.8612 71.1124 40.5973 71.6153C39.8614 71.9089 38.649 73.2268 38.4132 74.0019C38.2571 74.3145 38.3328 74.5536 38.3328 74.5536C38.3362 74.5545 39.9998 72.7246 41.7244 72.1008C43.3959 71.5016 45.2419 70.053 45.3664 69.9503C45.2834 69.9951 44.6052 70.3707 44.0065 70.5522Z" fill="#FFDEAE"/>
<path d="M40.9443 74.738C40.9417 74.7395 40.94 74.7394 40.9375 74.7407C40.7903 74.8246 38.6309 75.9972 36.8539 76.3595C35.0185 76.7377 32.9522 78.3208 32.9492 78.3198C32.9492 78.3198 35.6267 78.5406 36.9828 77.9434C38.6249 77.2297 40.8824 74.816 40.9443 74.738Z" fill="#C49047"/>
<path d="M39.4611 75.1457C38.2545 75.329 37.2284 75.4017 35.8724 75.7248C35.0824 75.9134 33.5801 77.05 33.1621 77.7849C32.9338 78.0727 32.9494 78.3197 32.9494 78.3197C32.9524 78.3207 35.0188 76.7376 36.8542 76.3594C38.6311 75.997 40.7907 74.8244 40.9378 74.7407C40.8455 74.7735 40.0904 75.0496 39.4611 75.1457Z" fill="#FFDEAE"/>
<path d="M39.5662 68.0363C39.5661 68.0386 39.5646 68.0397 39.5645 68.0421C39.5525 68.182 39.31 70.1882 38.4844 71.4883C37.6372 72.8366 37.8316 74.9916 37.8291 74.9917C37.8307 74.9927 39.8735 73.4719 40.1713 72.2989C40.5458 70.889 39.6024 68.1216 39.5662 68.0363Z" fill="#C49047"/>
<path d="M38.9983 69.1888C38.3842 70.0407 37.774 70.7165 37.1877 71.7351C36.8471 72.3295 36.9731 73.8946 37.4322 74.562C37.5683 74.8633 37.8292 74.9918 37.8292 74.9918C37.8316 74.9917 37.6372 72.8367 38.4845 71.4884C39.3101 70.1883 39.5526 68.1821 39.5646 68.0422C39.5372 68.1181 39.3181 68.7442 38.9983 69.1888Z" fill="#FFDEAE"/>
<path d="M35.9908 72.4813C35.9903 72.4833 35.9884 72.484 35.9881 72.4861C35.9469 72.6052 35.2982 74.3066 34.3095 75.3285C33.2921 76.3891 32.9888 78.2809 32.9863 78.2807C32.9872 78.2813 35.058 77.2163 35.5705 76.2398C36.1996 75.0667 36.0036 72.5595 35.9908 72.4813Z" fill="#C49047"/>
<path d="M35.2516 73.4052C34.5401 74.064 33.8711 74.5721 33.1492 75.3809C32.7291 75.8528 32.4962 77.2241 32.7417 77.8594C32.792 78.1372 32.9861 78.2808 32.9861 78.2808C32.9884 78.281 33.2918 76.389 34.3092 75.3286C35.2977 74.3067 35.9466 72.6054 35.9877 72.4862C35.9475 72.5483 35.6223 73.0611 35.2516 73.4052Z" fill="#FFDEAE"/>
<path d="M19.7178 68.0765V62.2167H24.1023V53.4572H19.7178V47.8346H20.8325C21.4525 47.8346 22.0529 47.7977 22.6168 47.725C23.1107 47.6615 23.5139 47.5564 23.8156 47.4126C24.1073 47.2724 24.3217 47.1005 24.45 46.9034C24.5856 46.6946 24.6669 46.4043 24.6912 46.0404L24.7606 45H31.54V62.2167H35.8267V68.0765H19.7178Z" fill="#C49047"/>
<path d="M34.7134 66.9616H20.834V63.3312H25.2185V52.3421H20.834V48.9491C21.5042 48.9491 22.1465 48.9096 22.7609 48.8303C23.3752 48.7514 23.8871 48.614 24.2969 48.4185C24.7807 48.186 25.1438 47.8833 25.3859 47.5109C25.6279 47.1386 25.7675 46.673 25.8049 46.1145H30.4267V63.3312H34.7134V66.9616Z" fill="#FFDEAE"/>
<path d="M32.0183 78.8171C32.0183 79.8733 30.0205 80.7296 27.556 80.7296C25.0916 80.7296 23.0938 79.8733 23.0938 78.8171C23.0938 77.7608 25.0916 76.9045 27.556 76.9045C30.0205 76.9046 32.0183 77.7608 32.0183 78.8171Z" fill="#C49047"/>
<path d="M27.5565 80.395C25.1239 80.395 23.4287 79.5633 23.4287 78.8168C23.4287 78.0705 25.1239 77.2388 27.5565 77.2388C29.9892 77.2388 31.6845 78.0705 31.6845 78.8168C31.6845 79.5633 29.9892 80.395 27.5565 80.395Z" fill="#FFDEAE"/>
</svg>
