<svg width="56" height="86" viewBox="0 0 56 86" fill="none" xmlns="http://www.w3.org/2000/svg">
<path d="M45.2709 0L35.5624 27.1113H30.168L39.848 0.0221431V0H45.2709Z" fill="#9871F3"/>
<path d="M39.8476 0V0.0221431L30.1675 27.1113H24.8408L34.521 0.0221431V0H39.8476Z" fill="#F0F0F0"/>
<path d="M34.5213 0V0.0221431L24.8412 27.1113H19.3994L29.1079 0H34.5213Z" fill="#6F9DE2"/>
<path d="M39.355 27.515C40.0679 29.105 40.4638 30.8163 40.527 32.553C36.7114 30.6034 32.3879 29.504 27.8089 29.504C22.9744 29.504 18.4269 30.7296 14.46 32.8842C14.4805 31.034 14.8827 29.2058 15.6399 27.5149L15.9932 26.7278C16.3875 25.8461 17.2078 25.2294 18.1652 25.0953L19.2078 24.9486C24.7064 24.1789 30.2885 24.1789 35.7887 24.9486L36.8297 25.0953C37.7872 25.2294 38.6074 25.8461 39.0018 26.7278L39.355 27.515ZM36.5489 28.2894V27.2547C36.5489 26.955 36.3059 26.7121 36.0063 26.7121H18.9884C18.6888 26.7121 18.4458 26.9551 18.4458 27.2547V28.2894C18.4458 28.5906 18.6888 28.8336 18.9884 28.8336H36.0063C36.3059 28.8336 36.5489 28.5907 36.5489 28.2894Z" fill="#F69C62"/>
<path d="M9.68945 0L19.3979 27.1113H24.7924L15.1124 0.0221431V0H9.68945Z" fill="#6F9DE2"/>
<path d="M15.1123 0V0.0221431L24.7924 27.1113H30.119L20.4389 0.0221431V0H15.1123Z" fill="#F0F0F0"/>
<path d="M20.4395 0V0.0221431L30.1195 27.1113H35.5613L25.8529 0H20.4395Z" fill="#9871F3"/>
<path d="M40.7172 32.553C49.7885 37.184 56 46.618 56 57.5032C56 72.9673 43.4634 85.504 27.9993 85.504C12.5351 85.504 0 72.9674 0 57.5032C0 46.8735 5.92291 37.6272 14.6502 32.8842C18.6172 30.7295 23.1646 29.504 27.9992 29.504C32.5782 29.504 36.9016 30.6033 40.7172 32.553Z" fill="#E68A54"/>
<path d="M27.9992 83.2724C21.1161 83.2724 14.6453 80.5919 9.77849 75.7247C4.91167 70.8576 2.23145 64.3863 2.23145 57.5031C2.23145 48.0473 7.39803 39.3654 15.7149 34.8455C19.4609 32.8109 23.7088 31.7354 27.9992 31.7354C32.1221 31.7354 36.0597 32.6792 39.7028 34.5407C43.8692 36.6677 47.3839 39.8918 49.8675 43.8647C52.4196 47.9474 53.7685 52.6635 53.7685 57.5032C53.7685 64.3863 51.088 70.8575 46.2208 75.7248C41.3535 80.592 34.8823 83.2724 27.9992 83.2724Z" fill="#F69C62"/>
<path d="M23.4245 33.0068C23.4222 33.0085 23.4223 33.0102 23.4202 33.0119C23.2997 33.1199 21.5922 34.6904 20.9222 36.0566C20.2261 37.4718 18.0629 38.8904 18.0626 38.8909C18.0588 38.8912 18.1339 36.7243 19.0415 35.7303C20.1239 34.5309 23.3242 33.051 23.4245 33.0068Z" fill="#BC7546"/>
<path d="M22.7284 34.1384C22.3419 35.0772 22.1176 35.8867 21.5564 36.9253C21.2292 37.5312 19.6745 38.5746 18.7349 38.7999C18.3593 38.9398 18.0625 38.891 18.0625 38.891C18.0629 38.8904 20.226 37.4719 20.922 36.0566C21.592 34.6903 23.2993 33.1199 23.4201 33.012C23.368 33.0815 22.931 33.6487 22.7284 34.1384Z" fill="#F9C8A9"/>
<path d="M25.9629 37.4892C25.9601 37.4896 25.9587 37.4908 25.9559 37.4911C25.7867 37.5141 23.3565 37.8641 21.8075 38.6003C20.2023 39.3646 17.5479 39.3131 17.5479 39.3131C17.5457 39.3121 19.3219 37.6149 20.7404 37.3065C22.4442 36.9325 25.8556 37.4723 25.9629 37.4892Z" fill="#BC7546"/>
<path d="M24.5886 38.0317C23.5819 38.5841 22.789 39.1174 21.5733 39.648C20.8642 39.9583 18.9355 39.945 18.0939 39.6089C17.7172 39.5146 17.5479 39.3127 17.5479 39.3127C17.5479 39.3127 20.2024 39.3646 21.8075 38.6003C23.3563 37.864 25.7867 37.5141 25.9559 37.491C25.8648 37.5194 25.1139 37.7441 24.5886 38.0317Z" fill="#F9C8A9"/>
<path d="M18.192 36.0876C18.1903 36.0895 18.1905 36.0911 18.1887 36.0931C18.0881 36.2136 16.6781 37.9635 16.2734 39.3859C15.851 40.8591 13.9651 42.5204 13.9653 42.5209C13.9614 42.5214 13.6089 40.3878 14.324 39.3009C15.1732 37.9907 18.099 36.1431 18.192 36.0876Z" fill="#BC7546"/>
<path d="M17.7118 37.282C17.5058 38.2496 17.438 39.0705 17.0779 40.1584C16.8674 40.793 15.5154 42.0096 14.6198 42.3478C14.2712 42.532 13.9648 42.521 13.9648 42.521C13.9645 42.5204 15.8507 40.8592 16.273 39.3861C16.6774 37.9636 18.0877 36.2138 18.1883 36.0932C18.1493 36.1678 17.82 36.7774 17.7118 37.282Z" fill="#F9C8A9"/>
<path d="M21.5981 40.1661C21.5956 40.1667 21.5941 40.1681 21.5915 40.1687C21.4267 40.2121 19.0613 40.8552 17.6547 41.7699C16.1979 42.7185 13.5327 42.9991 13.5322 42.9989C13.5295 42.9984 14.9729 41.1125 16.3342 40.6335C17.9683 40.0541 21.4884 40.1621 21.5981 40.1661Z" fill="#BC7546"/>
<path d="M20.3272 40.8678C19.4266 41.5341 18.7367 42.1555 17.6246 42.827C16.9764 43.2192 15.0455 43.4458 14.1371 43.2212C13.742 43.1757 13.5322 42.9988 13.5322 42.9988C13.5328 42.9991 16.198 42.7185 17.6547 41.7699C19.0612 40.8552 21.4267 40.2121 21.5915 40.1686C21.5058 40.2077 20.7977 40.5205 20.3272 40.8678Z" fill="#F9C8A9"/>
<path d="M13.3024 39.9894C13.3011 39.9917 13.3018 39.9932 13.3007 39.9954C13.2365 40.1303 12.3661 42.0798 12.3982 43.5213C12.426 45.0145 11.0734 46.9783 11.0746 46.9789C11.0712 46.9797 10.0692 45.0043 10.4445 43.8241C10.8821 42.4023 13.2258 40.0604 13.3024 39.9894Z" fill="#BC7546"/>
<path d="M13.1861 41.2253C13.2737 42.191 13.4542 42.9899 13.4276 44.1029C13.4111 44.752 12.4464 46.1835 11.6671 46.6839C11.3798 46.929 11.0742 46.9788 11.0742 46.9788C11.0734 46.9782 12.4259 45.0144 12.398 43.5212C12.3658 42.0797 13.2362 40.1302 13.3005 39.9953C13.2843 40.0742 13.141 40.7215 13.1861 41.2253Z" fill="#F9C8A9"/>
<path d="M17.8938 43.2275C17.8914 43.2286 17.8903 43.2302 17.888 43.2313C17.7381 43.3048 15.5936 44.3822 14.4831 45.5349C13.3332 46.7294 10.794 47.5221 10.794 47.5221C10.7899 47.5221 11.6355 45.4298 12.8359 44.704C14.2743 43.8273 17.7847 43.2444 17.8938 43.2275Z" fill="#BC7546"/>
<path d="M16.8491 44.148C16.1597 44.9628 15.6663 45.6938 14.7737 46.5555C14.2535 47.0584 12.4216 47.6535 11.458 47.6166C11.0549 47.6505 10.7938 47.5221 10.7939 47.5221C10.7946 47.522 13.3337 46.7294 14.4837 45.5349C15.5941 44.3821 17.7387 43.3048 17.8886 43.2313C17.8155 43.2854 17.2095 43.7233 16.8491 44.148Z" fill="#F9C8A9"/>
<path d="M9.77064 44.3563C9.76979 44.3586 9.77087 44.36 9.76994 44.3623C9.72643 44.5015 9.16165 46.51 9.42356 47.9319C9.68803 49.4052 8.64851 51.4766 8.64983 51.477C8.64681 51.478 7.3274 49.6194 7.51421 48.4174C7.72449 46.9703 9.70437 44.4336 9.77064 44.3563Z" fill="#BC7546"/>
<path d="M9.84912 45.5882C10.09 46.5339 10.3971 47.3063 10.5468 48.4092C10.6331 49.0526 9.89457 50.5602 9.19523 51.1293C8.94686 51.399 8.64942 51.4773 8.64942 51.4773C8.64779 51.4769 9.68746 49.4054 9.42315 47.9322C9.16116 46.5102 9.72625 44.5018 9.76953 44.3626C9.76566 44.4418 9.72425 45.0948 9.84912 45.5882Z" fill="#F9C8A9"/>
<path d="M14.8837 47.121C14.8813 47.1224 14.881 47.1241 14.8786 47.1254C14.7397 47.212 12.7606 48.4799 11.832 49.7254C10.8699 51.0159 8.4579 52.041 8.45705 52.0414C8.45334 52.0414 8.96393 49.8913 10.0512 49.0597C11.3523 48.0558 14.7772 47.1479 14.8837 47.121Z" fill="#BC7546"/>
<path d="M13.9812 48.13C13.4187 49.0011 13.0403 49.7707 12.2836 50.7078C11.8427 51.2547 10.1059 52.0167 9.13632 52.0718C8.73861 52.1437 8.45703 52.0414 8.45703 52.0414C8.45781 52.0411 10.8698 51.016 11.832 49.7254C12.7604 48.48 14.7396 47.2121 14.8785 47.1254C14.814 47.1857 14.2752 47.6759 13.9812 48.13Z" fill="#F9C8A9"/>
<path d="M7.09343 49.1217C7.09351 49.124 7.09452 49.1253 7.09428 49.1277C7.08592 49.2697 7.03281 51.3128 7.65264 52.6569C8.2864 54.0504 7.78619 56.2355 7.78836 56.2359C7.78642 56.2368 6.00776 54.6322 5.8859 53.4323C5.72339 51.9887 7.04574 49.207 7.09343 49.1217Z" fill="#BC7546"/>
<path d="M7.48265 50.3074C7.96018 51.1896 8.45916 51.8932 8.88567 52.9446C9.13311 53.5579 8.78448 55.1448 8.23897 55.8103C8.06246 56.1127 7.78862 56.2359 7.78862 56.2359C7.78629 56.2356 8.28674 54.0503 7.65289 52.6569C7.03299 51.3127 7.08618 49.2698 7.09454 49.1276C7.11034 49.2056 7.23413 49.8471 7.48265 50.3074Z" fill="#F9C8A9"/>
<path d="M12.8557 51.0076C12.8537 51.0092 12.8537 51.0109 12.8516 51.0126C12.7355 51.1187 11.092 52.6651 10.4885 54.0262C9.86204 55.4362 7.74318 56.8164 7.74272 56.8169C7.73885 56.8174 7.69433 54.6389 8.5599 53.657C9.59191 52.4727 12.7566 51.0501 12.8557 51.0076Z" fill="#BC7546"/>
<path d="M12.2142 52.1329C11.8753 53.0707 11.6938 53.8809 11.1825 54.9143C10.8842 55.5172 9.36343 56.5335 8.42122 56.7399C8.04751 56.8726 7.74293 56.817 7.74316 56.817C7.7434 56.8166 9.86241 55.4364 10.489 54.0263C11.0923 52.6651 12.7359 51.1189 12.8521 51.0127C12.803 51.0816 12.3917 51.644 12.2142 52.1329Z" fill="#F9C8A9"/>
<path d="M5.56932 54.0344C5.56978 54.0367 5.57125 54.0378 5.57156 54.0401C5.59718 54.1801 6.04034 56.1839 6.97953 57.4073C7.94357 58.6763 7.98136 60.8927 7.98438 60.8928C7.98321 60.8937 5.83688 59.5851 5.42253 58.4296C4.90784 57.0408 5.54152 54.1246 5.56932 54.0344Z" fill="#BC7546"/>
<path d="M6.24129 55.1349C6.92763 55.926 7.59159 56.5397 8.26716 57.5057C8.65984 58.0693 8.69986 59.6757 8.32437 60.4091C8.22373 60.7316 7.98418 60.893 7.98418 60.893C7.98116 60.8929 7.94323 58.6765 6.97926 57.4075C6.04007 56.1842 5.59692 54.1802 5.57129 54.0403C5.60597 54.1138 5.88384 54.722 6.24129 55.1349Z" fill="#F9C8A9"/>
<path d="M11.7267 55.0209C11.7251 55.0228 11.7254 55.0244 11.7238 55.0264C11.6341 55.1474 10.3779 56.9045 10.1113 58.3275C9.83197 59.8017 8.08063 61.4689 8.08079 61.4694C8.07699 61.4701 7.5013 59.3412 8.11796 58.2515C8.84857 56.9382 11.638 55.0768 11.7267 55.0209Z" fill="#BC7546"/>
<path d="M11.36 56.2179C11.2493 57.1864 11.2645 58.0071 11.009 59.0957C10.8599 59.7307 9.60698 60.9518 8.72941 61.2937C8.39325 61.4792 8.08008 61.4697 8.08008 61.4697C8.07985 61.4692 9.83118 59.802 10.1107 58.3278C10.3773 56.9046 11.6333 55.1478 11.7232 55.0267C11.691 55.1014 11.4186 55.7127 11.36 56.2179Z" fill="#F9C8A9"/>
<path d="M5.49902 59.7558C5.50034 59.758 5.50196 59.7587 5.50313 59.7608C5.57443 59.89 6.67202 61.7269 7.98818 62.7151C9.34296 63.7413 10.1165 65.8774 10.12 65.877C10.1196 65.8774 7.61098 65.0495 6.82245 64.0204C5.85849 62.7852 5.5008 59.8479 5.49902 59.7558Z" fill="#BC7546"/>
<path d="M6.5173 60.6764C7.44604 61.2969 8.29325 61.7523 9.26736 62.5466C9.83392 63.0101 10.4047 64.5542 10.2868 65.3399C10.2971 65.6723 10.12 65.8771 10.1198 65.8771C10.1163 65.8775 9.34246 63.7415 7.98798 62.7152C6.67183 61.7269 5.57423 59.89 5.50293 59.7609C5.5613 59.8245 6.03327 60.3523 6.5173 60.6764Z" fill="#F9C8A9"/>
<path d="M11.8026 59.4435C11.8019 59.4457 11.8025 59.4471 11.8017 59.4494C11.7529 59.5846 11.1103 61.5351 11.3229 62.9646C11.5379 64.4459 10.4036 66.4148 10.405 66.4153C10.4017 66.4163 9.13479 64.4746 9.36992 63.2973C9.6388 61.8796 11.7335 59.5154 11.8026 59.4435Z" fill="#BC7546"/>
<path d="M11.8393 60.6727C12.0494 61.6301 12.3332 62.4201 12.4448 63.5246C12.509 64.169 11.7042 65.6044 10.9725 66.1132C10.7103 66.3608 10.4053 66.4152 10.4053 66.4152C10.404 66.4148 11.538 64.4457 11.3232 62.9645C11.1106 61.5349 11.7534 59.5844 11.8021 59.4493C11.7955 59.528 11.7303 60.1733 11.8393 60.6727Z" fill="#F9C8A9"/>
<path d="M6.86523 64.616C6.86663 64.6181 6.86825 64.6188 6.86965 64.6208C6.95117 64.7469 8.19439 66.5378 9.59029 67.4767C11.0277 68.4521 11.9682 70.553 11.9714 70.5525C11.9713 70.5531 9.39341 69.8142 8.52289 68.8167C7.46021 67.6199 6.87414 64.7076 6.86523 64.616Z" fill="#BC7546"/>
<path d="M7.9585 65.4973C8.93794 66.0832 9.82255 66.5074 10.8604 67.2648C11.4643 67.7069 12.1552 69.2252 12.0978 70.0118C12.1336 70.3425 11.9719 70.5525 11.9719 70.5525C11.9684 70.5529 11.0283 68.4521 9.59076 67.4767C8.19478 66.5377 6.95149 64.747 6.87012 64.6208C6.93337 64.6822 7.44791 65.1914 7.9585 65.4973Z" fill="#F9C8A9"/>
<path d="M13.1632 64.0876C13.1627 64.0898 13.1633 64.0913 13.1627 64.0936C13.1243 64.2297 12.6289 66.1943 12.9521 67.6107C13.2809 69.0787 12.2972 71.0783 12.2983 71.0789C12.2951 71.0799 10.8755 69.1894 11.0201 68.0089C11.1798 66.5879 13.0992 64.1616 13.1632 64.0876Z" fill="#BC7546"/>
<path d="M13.2933 65.3106C13.5774 66.2569 13.9223 67.034 14.1189 68.1301C14.2327 68.7697 13.5366 70.2269 12.843 70.7586C12.5992 71.0143 12.2979 71.0788 12.2979 71.0788C12.2967 71.0782 13.2805 69.0787 12.9517 67.6106C12.6284 66.1942 13.1239 64.2297 13.1623 64.0935C13.1615 64.1721 13.146 64.8168 13.2933 65.3106Z" fill="#F9C8A9"/>
<path d="M9.61426 69.9461C9.61627 69.9479 9.61836 69.948 9.62037 69.9498C9.74463 70.0526 11.5911 71.5012 13.2622 72.1004C14.9868 72.7242 16.6503 74.554 16.6539 74.5531C16.6544 74.5532 13.9425 74.4029 12.746 73.6318C11.2939 72.7085 9.65599 70.0317 9.61426 69.9461Z" fill="#BC7546"/>
<path d="M10.9799 70.552C12.128 70.8989 13.1252 71.1122 14.3891 71.6151C15.125 71.9087 16.3374 73.2265 16.5731 74.0017C16.7293 74.3142 16.6536 74.5534 16.6536 74.5534C16.6502 74.5542 14.9865 72.7244 13.262 72.1006C11.5905 71.5014 9.74461 70.0527 9.62012 69.95C9.70296 69.9948 10.3812 70.3705 10.9799 70.552Z" fill="#F9C8A9"/>
<path d="M14.042 74.738C14.0445 74.7394 14.0462 74.7393 14.0488 74.7407C14.196 74.8245 16.3554 75.9971 18.1324 76.3594C19.9678 76.7376 22.034 78.3208 22.0371 78.3197C22.0371 78.3197 19.3596 78.5406 18.0035 77.9433C16.3614 77.2296 14.1039 74.8159 14.042 74.738Z" fill="#BC7546"/>
<path d="M15.5254 75.1457C16.7321 75.3288 17.7581 75.4016 19.1141 75.7247C19.9041 75.9134 21.4064 77.05 21.8244 77.7849C22.0527 78.0726 22.0371 78.3197 22.0371 78.3197C22.0342 78.3206 19.9677 76.7374 18.1324 76.3593C16.3555 75.997 14.1958 74.8244 14.0488 74.7406C14.141 74.7734 14.896 75.0495 15.5254 75.1457Z" fill="#F9C8A9"/>
<path d="M15.4214 68.0363C15.4215 68.0386 15.4229 68.0398 15.4231 68.0421C15.435 68.1821 15.6776 70.1883 16.5031 71.4883C17.3503 72.8366 17.1559 74.9916 17.1585 74.9917C17.1568 74.9928 15.1141 73.4719 14.8162 72.2989C14.4419 70.889 15.3852 68.1216 15.4214 68.0363Z" fill="#BC7546"/>
<path d="M15.9891 69.1888C16.6033 70.0407 17.2134 70.7164 17.7997 71.7351C18.1403 72.3295 18.0144 73.8946 17.5552 74.562C17.4192 74.8633 17.1582 74.9918 17.1582 74.9918C17.1558 74.9917 17.3502 72.8367 16.5029 71.4884C15.6773 70.1883 15.4349 68.1821 15.4229 68.0422C15.4501 68.1181 15.6692 68.7442 15.9891 69.1888Z" fill="#F9C8A9"/>
<path d="M18.9967 72.4814C18.9973 72.4833 18.9992 72.4841 18.9994 72.4862C19.0406 72.6053 19.6893 74.3067 20.6779 75.3285C21.6955 76.3891 21.9987 78.281 22.0011 78.2807C22.0003 78.2814 19.9294 77.2164 19.417 76.2399C18.7879 75.0668 18.984 72.5596 18.9967 72.4814Z" fill="#BC7546"/>
<path d="M19.7351 73.405C20.4466 74.0639 21.1155 74.572 21.8376 75.3807C22.2576 75.8526 22.4905 77.2239 22.245 77.8592C22.1947 78.137 22.0006 78.2806 22.0006 78.2806C21.9984 78.2808 21.695 76.3888 20.6775 75.3284C19.6891 74.3065 19.0401 72.6052 18.999 72.486C19.0392 72.5481 19.3644 73.0609 19.7351 73.405Z" fill="#F9C8A9"/>
<path d="M31.5625 33.0068C31.5647 33.0085 31.5647 33.0102 31.5668 33.0119C31.6872 33.1199 33.3948 34.6904 34.0648 36.0566C34.7608 37.4718 36.9241 38.8904 36.9243 38.8909C36.9281 38.8912 36.853 36.7243 35.9455 35.7303C34.863 34.5309 31.6628 33.051 31.5625 33.0068Z" fill="#BC7546"/>
<path d="M32.2582 34.1384C32.6447 35.0772 32.8691 35.8867 33.4302 36.9253C33.7573 37.5312 35.3121 38.5746 36.2517 38.7999C36.6272 38.9398 36.924 38.8909 36.924 38.8909C36.9236 38.8904 34.7606 37.4719 34.0645 36.0566C33.3945 34.6903 31.6871 33.1199 31.5664 33.012C31.6187 33.0815 32.0558 33.6487 32.2582 34.1384Z" fill="#F9C8A9"/>
<path d="M29.0244 37.4893C29.0272 37.4897 29.0287 37.4908 29.0314 37.4911C29.2005 37.5142 31.6307 37.8641 33.1798 38.6004C34.785 39.3647 37.4394 39.3131 37.4394 39.3131C37.4416 39.3121 35.6654 37.615 34.2468 37.3066C32.543 36.9325 29.1317 37.4723 29.0244 37.4893Z" fill="#BC7546"/>
<path d="M30.3984 38.0317C31.4051 38.5841 32.1981 39.1174 33.4137 39.648C34.1228 39.9583 36.0516 39.945 36.8932 39.6089C37.2697 39.5146 37.4392 39.3127 37.4392 39.3127C37.4392 39.3127 34.7847 39.3646 33.1797 38.6003C31.6308 37.864 29.2004 37.5141 29.0312 37.491C29.1222 37.5194 29.873 37.7441 30.3984 38.0317Z" fill="#F9C8A9"/>
<path d="M36.7959 36.0875C36.7976 36.0895 36.7974 36.0911 36.7992 36.093C36.8999 36.2136 38.3099 37.9634 38.7145 39.3859C39.1369 40.859 41.0228 42.5203 41.0227 42.5208C41.0265 42.5213 41.3791 40.3877 40.6639 39.3009C39.8148 37.9906 36.8888 36.143 36.7959 36.0875Z" fill="#BC7546"/>
<path d="M37.2754 37.2819C37.4814 38.2495 37.5491 39.0704 37.9093 40.1583C38.1197 40.793 39.4717 42.0095 40.3673 42.3477C40.7159 42.5319 41.0223 42.5209 41.0223 42.5209C41.0226 42.5204 39.1364 40.8592 38.7141 39.386C38.3097 37.9635 36.8994 36.2138 36.7988 36.0931C36.8379 36.1677 37.167 36.7773 37.2754 37.2819Z" fill="#F9C8A9"/>
<path d="M33.3887 40.1661C33.3911 40.1667 33.3927 40.1681 33.3953 40.1687C33.5601 40.2121 35.9255 40.8552 37.3322 41.7699C38.7889 42.7185 41.4541 42.9991 41.4546 42.9989C41.4572 42.9984 40.014 41.1125 38.6527 40.6335C37.0185 40.0541 33.4985 40.1621 33.3887 40.1661Z" fill="#BC7546"/>
<path d="M34.6597 40.8678C35.5604 41.5341 36.2502 42.1555 37.3624 42.827C38.0105 43.2192 39.9415 43.4458 40.8499 43.2212C41.245 43.1757 41.4548 42.9988 41.4548 42.9988C41.4542 42.9991 38.789 42.7185 37.3323 41.7699C35.9258 40.8552 33.5603 40.2121 33.3955 40.1686C33.4811 40.2077 34.1892 40.5205 34.6597 40.8678Z" fill="#F9C8A9"/>
<path d="M41.6846 39.9893C41.6858 39.9916 41.6851 39.993 41.6862 39.9953C41.7505 40.1301 42.6209 42.0797 42.5887 43.5212C42.561 45.0144 43.9135 46.9782 43.9124 46.9788C43.9158 46.9796 44.9177 45.0042 44.5425 43.824C44.1049 42.4021 41.7612 40.0603 41.6846 39.9893Z" fill="#BC7546"/>
<path d="M41.8008 41.2252C41.7131 42.191 41.5327 42.9899 41.5593 44.1028C41.5757 44.752 42.5405 46.1835 43.3198 46.6838C43.6071 46.929 43.9126 46.9787 43.9126 46.9787C43.9134 46.9781 42.5609 45.0143 42.5887 43.5211C42.621 42.0796 41.7506 40.1301 41.6862 39.9952C41.7025 40.0741 41.8458 40.7214 41.8008 41.2252Z" fill="#F9C8A9"/>
<path d="M37.0918 43.2275C37.0942 43.2287 37.0953 43.2302 37.0976 43.2314C37.2474 43.3049 39.392 44.3823 40.5024 45.535C41.6524 46.7295 44.1916 47.5221 44.1921 47.5221C44.1957 47.5221 43.3501 45.4298 42.1498 44.704C40.7113 43.8274 37.2009 43.2445 37.0918 43.2275Z" fill="#BC7546"/>
<path d="M38.1371 44.1481C38.8265 44.9629 39.3198 45.6939 40.2124 46.5556C40.7326 47.0585 42.5646 47.6536 43.5281 47.6167C43.9313 47.6506 44.1924 47.5223 44.1922 47.5222C44.1915 47.5221 41.6525 46.7295 40.5025 45.535C39.3921 44.3822 37.2475 43.3049 37.0977 43.2314C37.1707 43.2855 37.7767 43.7234 38.1371 44.1481Z" fill="#F9C8A9"/>
<path d="M45.2168 44.3562C45.2176 44.3585 45.2166 44.3599 45.2174 44.3622C45.2609 44.5014 45.8258 46.51 45.5638 47.9318C45.2993 49.4051 46.3389 51.4765 46.3375 51.477C46.3406 51.4779 47.66 49.6193 47.4731 48.4174C47.263 46.9702 45.2831 44.4335 45.2168 44.3562Z" fill="#BC7546"/>
<path d="M45.1381 45.5881C44.8972 46.5338 44.5902 47.3062 44.4405 48.4091C44.3541 49.0525 45.0927 50.5601 45.792 51.1292C46.0404 51.3989 46.3379 51.4772 46.3379 51.4772C46.3394 51.4768 45.2998 49.4053 45.5641 47.932C45.8261 46.5101 45.261 44.5017 45.2177 44.3625C45.2216 44.4417 45.263 45.0947 45.1381 45.5881Z" fill="#F9C8A9"/>
<path d="M40.1035 47.1209C40.1059 47.1223 40.1062 47.124 40.1087 47.1253C40.2475 47.212 42.2267 48.4799 43.1553 49.7253C44.1174 51.0159 46.5294 52.0409 46.5302 52.0413C46.5339 52.0414 46.0233 49.8913 44.936 49.0596C43.6351 48.0558 40.21 47.1479 40.1035 47.1209Z" fill="#BC7546"/>
<path d="M41.0057 48.1302C41.5682 49.0012 41.9466 49.7709 42.7033 50.708C43.1442 51.2549 44.8811 52.0168 45.8506 52.072C46.2484 52.1438 46.53 52.0415 46.53 52.0415C46.529 52.0412 44.117 51.016 43.155 49.7256C42.2265 48.4801 40.2473 47.2123 40.1084 47.1255C40.173 47.1858 40.7117 47.676 41.0057 48.1302Z" fill="#F9C8A9"/>
<path d="M47.8921 49.1219C47.892 49.1242 47.891 49.1255 47.8912 49.1279C47.8995 49.2699 47.9527 51.313 47.3328 52.6571C46.6991 54.0506 47.1993 56.2357 47.1972 56.2361C47.1991 56.237 48.9778 54.6324 49.0996 53.4324C49.2621 51.9889 47.9398 49.2072 47.8921 49.1219Z" fill="#BC7546"/>
<path d="M47.5035 50.3075C47.026 51.1896 46.527 51.8932 46.1006 52.9447C45.8531 53.558 46.2018 55.1448 46.7473 55.8104C46.9238 56.1127 47.1977 56.236 47.1977 56.236C47.2 56.2357 46.6995 54.0504 47.3333 52.6569C47.9533 51.3127 47.9 49.2698 47.8917 49.1277C47.8759 49.2056 47.752 49.8472 47.5035 50.3075Z" fill="#F9C8A9"/>
<path d="M42.1309 51.0075C42.1328 51.0091 42.1328 51.0108 42.1349 51.0125C42.251 51.1187 43.8944 52.665 44.498 54.0261C45.1245 55.4361 47.2433 56.8164 47.2438 56.8168C47.2477 56.8174 47.2922 54.6388 46.4266 53.6569C45.3947 52.4726 42.23 51.05 42.1309 51.0075Z" fill="#BC7546"/>
<path d="M42.7726 52.1328C43.1116 53.0706 43.2931 53.8808 43.8043 54.9143C44.1026 55.5171 45.6234 56.5334 46.5655 56.7398C46.9393 56.8725 47.2438 56.8169 47.2438 56.8169C47.2434 56.8166 45.1244 55.4363 44.4979 54.0262C43.8945 52.665 42.251 51.1189 42.1348 51.0126C42.1838 51.0815 42.595 51.6439 42.7726 52.1328Z" fill="#F9C8A9"/>
<path d="M49.417 54.0344C49.4165 54.0367 49.4151 54.0378 49.4148 54.0401C49.3891 54.1801 48.946 56.1839 48.0068 57.4073C47.0428 58.6763 47.005 60.8927 47.002 60.8928C47.003 60.8937 49.1494 59.5851 49.5638 58.4296C50.0785 57.0408 49.4447 54.1246 49.417 54.0344Z" fill="#BC7546"/>
<path d="M48.745 55.1348C48.0587 55.9259 47.3948 56.5395 46.7192 57.5056C46.3265 58.0692 46.2865 59.6756 46.662 60.4089C46.7626 60.7315 47.0021 60.8929 47.0021 60.8929C47.0052 60.8928 47.043 58.6764 48.0071 57.4074C48.9462 56.1841 49.3894 54.1801 49.415 54.0402C49.3803 54.1137 49.1025 54.7219 48.745 55.1348Z" fill="#F9C8A9"/>
<path d="M43.2607 55.021C43.2623 55.0229 43.262 55.0245 43.2636 55.0266C43.3533 55.1475 44.6096 56.9046 44.876 58.3276C45.1555 59.8018 46.9068 61.469 46.9068 61.469C46.9104 61.4702 47.4861 59.3413 46.8695 58.2516C46.1389 56.9383 43.3495 55.077 43.2607 55.021Z" fill="#BC7546"/>
<path d="M43.6269 56.2178C43.7376 57.1863 43.7223 58.0071 43.9778 59.0957C44.1269 59.7306 45.3797 60.9517 46.2574 61.2936C46.5935 61.4791 46.9067 61.4696 46.9067 61.4696C46.9069 61.4692 45.1556 59.8019 44.8761 58.3277C44.6095 56.9045 43.3536 55.1478 43.2637 55.0267C43.2958 55.1014 43.5682 55.7126 43.6269 56.2178Z" fill="#F9C8A9"/>
<path d="M49.4871 59.7559C49.4858 59.758 49.4842 59.7588 49.483 59.7609C49.4118 59.8901 48.3141 61.7269 46.998 62.7152C45.6432 63.7414 44.8697 65.8774 44.8662 65.877C44.8666 65.8775 47.3752 65.0496 48.1637 64.0204C49.1276 62.7853 49.4852 59.848 49.4871 59.7559Z" fill="#BC7546"/>
<path d="M48.4687 60.6764C47.54 61.2968 46.6927 61.7523 45.7187 62.5465C45.1521 63.0101 44.5813 64.5541 44.6992 65.3399C44.689 65.6722 44.866 65.877 44.8662 65.877C44.8697 65.8774 45.6434 63.7415 46.9979 62.7152C48.3141 61.7268 49.4116 59.8899 49.483 59.7609C49.4246 59.8244 48.9527 60.3523 48.4687 60.6764Z" fill="#F9C8A9"/>
<path d="M43.1836 59.4435C43.1844 59.4457 43.1837 59.4471 43.1844 59.4494C43.2332 59.5846 43.8759 61.5351 43.6633 62.9646C43.4483 64.4459 44.5825 66.4148 44.5812 66.4153C44.5844 66.4163 45.8513 64.4746 45.6162 63.2973C45.3473 61.8796 43.2527 59.5154 43.1836 59.4435Z" fill="#BC7546"/>
<path d="M43.1471 60.6728C42.9371 61.6302 42.6533 62.4202 42.5417 63.5247C42.4775 64.169 43.2824 65.6044 44.0139 66.1132C44.2761 66.3609 44.5812 66.4153 44.5812 66.4153C44.5825 66.4149 43.4485 64.4457 43.6633 62.9645C43.8759 61.535 43.2332 59.5845 43.1844 59.4494C43.191 59.5281 43.2562 60.1734 43.1471 60.6728Z" fill="#F9C8A9"/>
<path d="M48.1209 64.616C48.1195 64.6181 48.1179 64.6188 48.1164 64.6208C48.035 64.7469 46.7918 66.5378 45.3958 67.4767C43.9584 68.4521 43.0179 70.553 43.0146 70.5525C43.0148 70.5531 45.5927 69.8142 46.4632 68.8167C47.526 67.6199 48.112 64.7076 48.1209 64.616Z" fill="#BC7546"/>
<path d="M47.0284 65.4973C46.0489 66.0831 45.1643 66.5073 44.1264 67.2648C43.5226 67.7069 42.8317 69.2251 42.889 70.0117C42.8531 70.3425 43.0149 70.5524 43.0149 70.5524C43.0183 70.5528 43.9585 68.452 45.396 67.4767C46.7919 66.5377 48.0353 64.7469 48.1167 64.6208C48.0534 64.6821 47.5389 65.1913 47.0284 65.4973Z" fill="#F9C8A9"/>
<path d="M41.8232 64.0876C41.8238 64.0898 41.8231 64.0913 41.8236 64.0936C41.8622 64.2297 42.3575 66.1943 42.0342 67.6107C41.7055 69.0787 42.6892 71.0783 42.6879 71.0789C42.6912 71.0799 44.1109 69.1894 43.9662 68.0089C43.8066 66.5879 41.8871 64.1616 41.8232 64.0876Z" fill="#BC7546"/>
<path d="M41.6923 65.3107C41.4083 66.257 41.0634 67.0341 40.8668 68.1302C40.7529 68.7698 41.4491 70.227 42.1427 70.7586C42.3865 71.0144 42.6877 71.0788 42.6877 71.0788C42.6889 71.0783 41.7051 69.0788 42.0338 67.6106C42.3571 66.1943 41.8617 64.2297 41.8233 64.0936C41.8242 64.1721 41.8396 64.8169 41.6923 65.3107Z" fill="#F9C8A9"/>
<path d="M45.3726 69.946C45.3707 69.9478 45.3686 69.948 45.3666 69.9498C45.2423 70.0526 43.3959 71.5012 41.7247 72.1003C40.0002 72.7241 38.3366 74.5539 38.333 74.553C38.333 74.553 41.0444 74.4028 42.2409 73.6317C43.6931 72.7085 45.331 70.0316 45.3726 69.946Z" fill="#BC7546"/>
<path d="M44.0065 70.5518C42.8583 70.8988 41.8612 71.112 40.5973 71.615C39.8614 71.9086 38.649 73.2264 38.4132 74.0015C38.2571 74.3141 38.3328 74.5532 38.3328 74.5532C38.3362 74.5541 39.9998 72.7243 41.7244 72.1005C43.3959 71.5012 45.2419 70.0526 45.3664 69.9499C45.2834 69.9947 44.6051 70.3704 44.0065 70.5518Z" fill="#F9C8A9"/>
<path d="M40.9443 74.7379C40.9417 74.7394 40.94 74.7392 40.9375 74.7406C40.7903 74.8245 38.6309 75.9971 36.8539 76.3593C35.0185 76.7375 32.9522 78.3207 32.9492 78.3196C32.9492 78.3196 35.6267 78.5405 36.9828 77.9433C38.6249 77.2295 40.8824 74.8159 40.9443 74.7379Z" fill="#BC7546"/>
<path d="M39.4612 75.1456C38.2545 75.3288 37.2285 75.4016 35.8724 75.7246C35.0825 75.9133 33.5801 77.0499 33.1621 77.7848C32.9338 78.0726 32.9494 78.3196 32.9494 78.3196C32.9524 78.3205 35.0188 76.7374 36.8542 76.3592C38.6311 75.9969 40.7907 74.8243 40.9378 74.7405C40.8456 74.7734 40.0906 75.0494 39.4612 75.1456Z" fill="#F9C8A9"/>
<path d="M39.5661 68.0363C39.566 68.0386 39.5645 68.0398 39.5645 68.0421C39.5525 68.1821 39.31 70.1883 38.4844 71.4883C37.6372 72.8366 37.8316 74.9916 37.8291 74.9917C37.8307 74.9928 39.8735 73.4719 40.1713 72.2989C40.5456 70.889 39.6022 68.1216 39.5661 68.0363Z" fill="#BC7546"/>
<path d="M38.9983 69.1887C38.3842 70.0406 37.774 70.7164 37.1877 71.7351C36.8471 72.3294 36.9731 73.8946 37.4322 74.5619C37.5683 74.8633 37.8293 74.9918 37.8293 74.9918C37.8317 74.9916 37.6372 72.8366 38.4845 71.4883C39.3102 70.1883 39.5526 68.182 39.5646 68.0421C39.5371 68.1181 39.318 68.7442 38.9983 69.1887Z" fill="#F9C8A9"/>
<path d="M35.9907 72.4812C35.9903 72.4831 35.9883 72.4839 35.988 72.486C35.9468 72.6051 35.2981 74.3065 34.3094 75.3283C33.292 76.3889 32.9887 78.2808 32.9863 78.2806C32.9872 78.2812 35.058 77.2162 35.5705 76.2397C36.1995 75.0666 36.0034 72.5594 35.9907 72.4812Z" fill="#BC7546"/>
<path d="M35.2516 73.4049C34.5401 74.0637 33.8711 74.5718 33.1492 75.3806C32.7291 75.8525 32.4962 77.2238 32.7417 77.859C32.792 78.1369 32.9861 78.2804 32.9861 78.2804C32.9884 78.2807 33.2918 76.3887 34.3092 75.3282C35.2977 74.3064 35.9466 72.6051 35.9877 72.4859C35.9474 72.548 35.6223 73.0608 35.2516 73.4049Z" fill="#F9C8A9"/>
<path d="M32.0192 78.8169C32.0192 79.8731 30.0215 80.7294 27.557 80.7294C25.0926 80.7294 23.0947 79.8731 23.0947 78.8169C23.0947 77.7606 25.0926 76.9044 27.557 76.9044C30.0214 76.9044 32.0192 77.7606 32.0192 78.8169Z" fill="#BC7546"/>
<path d="M27.5575 80.395C25.1249 80.395 23.4297 79.5633 23.4297 78.8168C23.4297 78.0705 25.1249 77.2388 27.5575 77.2388C29.9902 77.2388 31.6854 78.0705 31.6854 78.8168C31.6854 79.5633 29.9901 80.395 27.5575 80.395Z" fill="#F9C8A9"/>
<path d="M27.0373 69.1526C24.173 69.1526 21.3338 68.6339 19.2484 67.7289L18.5322 67.4182V60.8578H20.6013L20.8848 61.0294C22.5031 62.0073 24.8278 62.6648 26.6691 62.6648C29.552 62.6648 29.552 61.2914 29.552 60.84C29.552 60.2406 29.552 59.6205 26.6087 59.6205C26.2852 59.6205 25.9564 59.626 25.6277 59.6319C25.2856 59.6374 24.9434 59.6432 24.6071 59.6432H23.4175V53.5304L25.9425 53.5362C26.8382 53.5362 28.7017 53.5362 29.1204 52.9367C29.182 52.8269 29.308 52.3829 29.1652 52.1C29.024 51.8208 28.5419 51.6155 27.8425 51.5366C27.5045 51.4981 27.1611 51.4787 26.822 51.4787C25.0323 51.4787 23.2252 52.0114 21.4518 53.0622L21.1713 53.2284H19.1359V46.7008L19.8817 46.4008C22.0618 45.5237 24.9557 45 27.6219 45C31.8134 45 34.8381 46.253 36.1404 48.5283C37.057 50.135 37.1314 52.1509 36.3397 53.9216C35.9313 54.8339 35.3289 55.6114 34.5831 56.2126C36.2374 57.2007 37.2958 58.8565 37.4474 60.8671C37.7507 64.885 34.5291 67.7069 31.4087 68.6276C30.2443 68.9708 28.7328 69.1526 27.0373 69.1526Z" fill="#BC7546"/>
<path d="M31.0713 67.4867C28.3717 68.2832 23.1688 68.1332 19.7217 66.6375V62.0474H20.2694C23.9084 64.2473 30.741 65.0626 30.741 60.84C30.741 58.031 27.4575 58.4535 24.6069 58.4535V54.7199C26.8856 54.7199 29.2182 54.8731 30.0953 53.618C30.4404 53.1242 31.1719 50.715 27.976 50.3544C25.4347 50.0655 23.0165 50.7524 20.8447 52.0388H20.3253V47.5043C24.666 45.7583 32.9008 45.2632 35.1068 49.1188C36.6087 51.7501 35.1472 55.5474 31.7377 56.2778V56.4746C37.9209 57.3239 37.8674 65.4806 31.0713 67.4867Z" fill="#F9C8A9"/>
</svg>
