<svg width="56" height="86" viewBox="0 0 56 86" fill="none" xmlns="http://www.w3.org/2000/svg">
<path d="M45.2709 0L35.5624 27.1112H30.168L39.848 0.0220652V0H45.2709Z" fill="#9871F3"/>
<path d="M39.8476 6.10352e-05V0.0221262L30.1675 27.1113H24.8408L34.521 0.0221262V6.10352e-05H39.8476Z" fill="#F0F0F0"/>
<path d="M34.5213 0V0.0220652L24.8411 27.1112H19.3994L29.1079 0H34.5213Z" fill="#6F9DE2"/>
<path d="M39.355 27.515C40.0679 29.105 40.4639 30.8163 40.527 32.553C36.7114 30.6034 32.3879 29.504 27.8089 29.504C22.9744 29.504 18.4269 30.7296 14.46 32.8842C14.4805 31.034 14.8827 29.2058 15.6399 27.5149L15.9932 26.7278C16.3875 25.8461 17.2078 25.2294 18.1652 25.0953L19.2078 24.9486C24.7064 24.1789 30.2885 24.1789 35.7887 24.9486L36.8297 25.0953C37.7872 25.2294 38.6074 25.8461 39.0018 26.7278L39.355 27.515ZM36.5489 28.2894V27.2547C36.5489 26.955 36.306 26.7121 36.0064 26.7121H18.9885C18.6888 26.7121 18.4459 26.955 18.4459 27.2547V28.2894C18.4459 28.5906 18.6888 28.8336 18.9885 28.8336H36.0064C36.306 28.8336 36.5489 28.5907 36.5489 28.2894Z" fill="#C9C9C9"/>
<path d="M9.68945 0L19.3979 27.1112H24.7924L15.1124 0.0220652V0H9.68945Z" fill="#6F9DE2"/>
<path d="M15.1123 0V0.0220652L24.7923 27.1112H30.119L20.4388 0.0220652V0H15.1123Z" fill="#F0F0F0"/>
<path d="M20.4385 0V0.0220652L30.1186 27.1112H35.5604L25.852 0H20.4385Z" fill="#9871F3"/>
<path d="M40.7172 32.5531C49.7885 37.1841 56 46.6181 56 57.5032C56 72.9674 43.4634 85.504 27.9993 85.504C12.5351 85.504 0 72.9674 0 57.5032C0 46.8736 5.92291 37.6272 14.6502 32.8842C18.6173 30.7296 23.1647 29.504 27.9992 29.504C32.5782 29.504 36.9017 30.6034 40.7172 32.5531Z" fill="#B8B8B8"/>
<path d="M27.9992 83.2725C21.1161 83.2725 14.6453 80.592 9.77851 75.7248C4.91169 70.8576 2.23145 64.3863 2.23145 57.5032C2.23145 48.0473 7.39805 39.3655 15.7149 34.8456C19.4609 32.8109 23.7088 31.7354 27.9991 31.7354C32.122 31.7354 36.0597 32.6792 39.7027 34.5407C43.8691 36.6677 47.3838 39.8918 49.8674 43.8648C52.4195 47.9475 53.7685 52.6635 53.7685 57.5033C53.7685 64.3863 51.0879 70.8575 46.2207 75.7248C41.3535 80.592 34.8823 83.2725 27.9992 83.2725Z" fill="#C9C9C9"/>
<path d="M23.4245 33.0069C23.4222 33.0086 23.4223 33.0103 23.4202 33.012C23.2997 33.1199 21.5922 34.6904 20.9222 36.0567C20.2262 37.4718 18.0629 38.8905 18.0626 38.8909C18.0588 38.8913 18.1339 36.7243 19.0415 35.7303C20.1239 34.5309 23.3241 33.0511 23.4245 33.0069Z" fill="#929292"/>
<path d="M22.7284 34.1383C22.3419 35.0773 22.1176 35.8867 21.5564 36.9253C21.2292 37.5312 19.6745 38.5746 18.7349 38.7999C18.3593 38.9398 18.0625 38.891 18.0625 38.891C18.0629 38.8904 20.226 37.4719 20.9221 36.0567C21.592 34.6903 23.2994 33.1199 23.4202 33.012C23.368 33.0815 22.9309 33.6487 22.7284 34.1383Z" fill="#E6E6E6"/>
<path d="M25.9629 37.4893C25.9601 37.4897 25.9587 37.4908 25.9559 37.4911C25.7867 37.5142 23.3565 37.8641 21.8075 38.6004C20.2023 39.3647 17.5479 39.3131 17.5479 39.3131C17.5457 39.3121 19.3219 37.615 20.7404 37.3066C22.4443 36.9325 25.8556 37.4723 25.9629 37.4893Z" fill="#929292"/>
<path d="M24.5887 38.0317C23.5819 38.5842 22.7891 39.1175 21.5733 39.648C20.8643 39.9583 18.9355 39.945 18.0939 39.6089C17.7172 39.5147 17.5479 39.3127 17.5479 39.3127C17.5479 39.3127 20.2024 39.3647 21.8075 38.6004C23.3563 37.8641 25.7867 37.5142 25.9559 37.4911C25.8648 37.5195 25.114 37.7442 24.5887 38.0317Z" fill="#E6E6E6"/>
<path d="M18.1921 36.0876C18.1904 36.0895 18.1905 36.0911 18.1887 36.0931C18.0881 36.2136 16.6781 37.9635 16.2734 39.3859C15.851 40.8591 13.9651 42.5204 13.9653 42.5209C13.9614 42.5214 13.6088 40.3878 14.324 39.3009C15.1733 37.9907 18.0992 36.1431 18.1921 36.0876Z" fill="#929292"/>
<path d="M17.7118 37.282C17.5058 38.2496 17.4381 39.0704 17.0779 40.1584C16.8674 40.793 15.5154 42.0096 14.6198 42.3478C14.2712 42.532 13.9648 42.521 13.9648 42.521C13.9645 42.5204 15.8507 40.8592 16.273 39.3861C16.6774 37.9636 18.0877 36.2138 18.1883 36.0932C18.1493 36.1678 17.8201 36.7774 17.7118 37.282Z" fill="#E6E6E6"/>
<path d="M21.5981 40.1661C21.5956 40.1667 21.5941 40.1682 21.5915 40.1687C21.4267 40.2121 19.0613 40.8552 17.6546 41.77C16.1979 42.7186 13.5328 42.9992 13.5322 42.9989C13.5295 42.9985 14.9729 41.1126 16.3342 40.6336C17.9684 40.0542 21.4884 40.1622 21.5981 40.1661Z" fill="#929292"/>
<path d="M20.3272 40.8678C19.4266 41.5342 18.7367 42.1556 17.6246 42.8271C16.9764 43.2192 15.0455 43.4458 14.1371 43.2212C13.742 43.1758 13.5322 42.9988 13.5322 42.9988C13.5328 42.9991 16.1979 42.7186 17.6546 41.7699C19.0613 40.8553 21.4267 40.2121 21.5915 40.1687C21.5059 40.2078 20.7978 40.5206 20.3272 40.8678Z" fill="#E6E6E6"/>
<path d="M13.3023 39.9895C13.3011 39.9917 13.3018 39.9932 13.3007 39.9955C13.2364 40.1303 12.366 42.0799 12.3982 43.5214C12.426 45.0146 11.0734 46.9783 11.0746 46.979C11.0712 46.9797 10.0691 45.0043 10.4445 43.8241C10.882 42.4023 13.2257 40.0605 13.3023 39.9895Z" fill="#929292"/>
<path d="M13.186 41.2253C13.2737 42.1911 13.4541 42.99 13.4275 44.1028C13.411 44.7521 12.4463 46.1836 11.667 46.684C11.3797 46.9291 11.0742 46.9789 11.0742 46.9789C11.0734 46.9782 12.4259 45.0145 12.398 43.5213C12.3657 42.0798 13.2362 40.1302 13.3005 39.9954C13.2843 40.0743 13.141 40.7216 13.186 41.2253Z" fill="#E6E6E6"/>
<path d="M17.8948 43.2276C17.8923 43.2288 17.8914 43.2303 17.889 43.2314C17.7391 43.3049 15.5945 44.3823 14.4841 45.535C13.3342 46.7296 10.7949 47.5222 10.7949 47.5222C10.7909 47.5222 11.6365 45.4299 12.8368 44.7041C14.2753 43.8274 17.7857 43.2446 17.8948 43.2276Z" fill="#929292"/>
<path d="M16.8501 44.1482C16.1607 44.963 15.6673 45.694 14.7747 46.5556C14.2545 47.0586 12.4226 47.6536 11.459 47.6168C11.0558 47.6507 10.7948 47.5223 10.7949 47.5223C10.7955 47.5222 13.3347 46.7296 14.4846 45.5351C15.595 44.3823 17.7396 43.3049 17.8894 43.2314C17.8164 43.2856 17.2105 43.7235 16.8501 44.1482Z" fill="#E6E6E6"/>
<path d="M9.76966 44.3563C9.76881 44.3586 9.76989 44.36 9.76896 44.3623C9.72545 44.5015 9.16066 46.51 9.42257 47.9319C9.68704 49.4052 8.64752 51.4766 8.64884 51.477C8.64582 51.478 7.32642 49.6194 7.51324 48.4174C7.72351 46.9703 9.70339 44.4336 9.76966 44.3563Z" fill="#929292"/>
<path d="M9.84806 45.588C10.089 46.5337 10.3961 47.3061 10.5457 48.4091C10.632 49.0524 9.89352 50.5601 9.19418 51.1292C8.94582 51.3988 8.64844 51.4772 8.64844 51.4772C8.64681 51.4766 9.68641 49.4052 9.4221 47.9319C9.16011 46.5099 9.72521 44.5016 9.76849 44.3624C9.76462 44.4416 9.72326 45.0946 9.84806 45.588Z" fill="#E6E6E6"/>
<path d="M14.8828 47.121C14.8804 47.1224 14.88 47.1241 14.8776 47.1254C14.7388 47.212 12.7596 48.4799 11.831 49.7254C10.8689 51.0159 8.45693 52.041 8.45607 52.0414C8.45236 52.0414 8.96295 49.8913 10.0502 49.0597C11.3512 48.0558 14.7762 47.1479 14.8828 47.121Z" fill="#929292"/>
<path d="M13.9802 48.1301C13.4176 49.0012 13.0393 49.7708 12.2826 50.708C11.8417 51.2549 10.1048 52.0168 9.13534 52.072C8.73763 52.1438 8.45605 52.0415 8.45605 52.0415C8.45683 52.0412 10.869 51.0161 11.831 49.7256C12.7594 48.4801 14.7387 47.2123 14.8776 47.1255C14.813 47.1857 14.2741 47.6759 13.9802 48.1301Z" fill="#E6E6E6"/>
<path d="M7.0944 49.122C7.09448 49.1243 7.09548 49.1256 7.09525 49.128C7.08697 49.27 7.03377 51.3131 7.6536 52.6572C8.28737 54.0507 7.78717 56.2358 7.78933 56.2362C7.7874 56.2371 6.00874 54.6325 5.88688 53.4325C5.72437 51.9891 7.04671 49.2073 7.0944 49.122Z" fill="#929292"/>
<path d="M7.4836 50.3076C7.96113 51.1898 8.46011 51.8934 8.88662 52.9448C9.13406 53.5581 8.78535 55.1449 8.23992 55.8105C8.0634 56.1129 7.78957 56.236 7.78957 56.236C7.78725 56.2358 8.28776 54.0505 7.65384 52.657C7.03393 51.3129 7.08721 49.27 7.09549 49.1278C7.11128 49.2058 7.23508 49.8473 7.4836 50.3076Z" fill="#E6E6E6"/>
<path d="M12.8557 51.0078C12.8537 51.0094 12.8537 51.0111 12.8516 51.0128C12.7355 51.1189 11.092 52.6652 10.4885 54.0264C9.86196 55.4364 7.74318 56.8166 7.74272 56.8171C7.73885 56.8176 7.69434 54.6391 8.55991 53.6572C9.59185 52.4729 12.7566 51.0503 12.8557 51.0078Z" fill="#929292"/>
<path d="M12.2133 52.1331C11.8744 53.0709 11.6929 53.8811 11.1816 54.9145C10.8833 55.5174 9.36253 56.5337 8.42032 56.7401C8.04661 56.8728 7.74203 56.8172 7.74219 56.8172C7.74242 56.8168 9.86143 55.4365 10.488 54.0265C11.0913 52.6653 12.7349 51.1191 12.8511 51.0129C12.8022 51.0818 12.3909 51.6442 12.2133 52.1331Z" fill="#E6E6E6"/>
<path d="M5.5693 54.0344C5.56977 54.0368 5.57124 54.0378 5.57155 54.0402C5.59718 54.1801 6.04034 56.184 6.97953 57.4074C7.94357 58.6764 7.98135 60.8927 7.98437 60.8929C7.98321 60.8937 5.83687 59.5852 5.42251 58.4297C4.90782 57.0409 5.54159 54.1247 5.5693 54.0344Z" fill="#929292"/>
<path d="M6.24227 55.1349C6.9286 55.9259 7.59256 56.5397 8.26813 57.5057C8.66081 58.0693 8.70084 59.6757 8.32535 60.4091C8.2247 60.7315 7.98516 60.893 7.98516 60.893C7.98214 60.8929 7.94421 58.6765 6.98024 57.4075C6.04105 56.1842 5.59789 54.1802 5.57227 54.0403C5.60695 54.1138 5.88474 54.722 6.24227 55.1349Z" fill="#E6E6E6"/>
<path d="M11.7266 55.0209C11.7251 55.0228 11.7253 55.0244 11.7237 55.0264C11.634 55.1474 10.3778 56.9045 10.1113 58.3274C9.83197 59.8017 8.08064 61.4689 8.08079 61.4694C8.077 61.4701 7.5013 59.3412 8.11795 58.2515C8.84849 56.9382 11.6379 55.0768 11.7266 55.0209Z" fill="#929292"/>
<path d="M11.361 56.2179C11.2503 57.1864 11.2655 58.0071 11.01 59.0957C10.8609 59.7307 9.60802 60.9518 8.73038 61.2937C8.39422 61.4791 8.08105 61.4697 8.08105 61.4697C8.08082 61.4692 9.83216 59.802 10.1116 58.3277C10.3783 56.9046 11.6343 55.1478 11.7241 55.0267C11.6919 55.1014 11.4195 55.7127 11.361 56.2179Z" fill="#E6E6E6"/>
<path d="M5.49902 59.7559C5.50034 59.7579 5.50196 59.7588 5.50313 59.7609C5.57435 59.89 6.67201 61.7268 7.98817 62.7152C9.34295 63.7414 10.1165 65.8774 10.1199 65.877C10.1196 65.8775 7.61098 65.0496 6.82245 64.0204C5.85856 62.7852 5.50088 59.848 5.49902 59.7559Z" fill="#929292"/>
<path d="M6.5173 60.6765C7.44604 61.297 8.29325 61.7525 9.26736 62.5467C9.83392 63.0102 10.4047 64.5543 10.2868 65.34C10.2971 65.6724 10.12 65.8771 10.12 65.8771C10.1163 65.8775 9.34252 63.7416 7.98797 62.7153C6.67182 61.7269 5.57423 59.89 5.50293 59.761C5.5613 59.8245 6.03334 60.3523 6.5173 60.6765Z" fill="#E6E6E6"/>
<path d="M11.8025 59.4435C11.8018 59.4458 11.8024 59.4472 11.8017 59.4495C11.7529 59.5847 11.1102 61.5351 11.3228 62.9646C11.5378 64.4459 10.4036 66.4148 10.4049 66.4154C10.4017 66.4164 9.13479 64.4747 9.36992 63.2973C9.63872 61.8797 11.7335 59.5155 11.8025 59.4435Z" fill="#929292"/>
<path d="M11.8393 60.6729C12.0494 61.6302 12.3332 62.4203 12.4448 63.5247C12.509 64.1691 11.7042 65.6045 10.9725 66.1133C10.7104 66.361 10.4053 66.4153 10.4053 66.4153C10.404 66.4149 11.538 64.4458 11.3232 62.9646C11.1106 61.535 11.7534 59.5846 11.8021 59.4495C11.7954 59.5281 11.7302 60.1734 11.8393 60.6729Z" fill="#E6E6E6"/>
<path d="M6.86621 64.6161C6.8676 64.6182 6.86924 64.6189 6.87071 64.621C6.95223 64.747 8.19544 66.5379 9.59134 67.4769C11.0287 68.4522 11.9692 70.5531 11.9725 70.5526C11.9723 70.5533 9.39447 69.8143 8.52395 68.8168C7.4612 67.62 6.87511 64.7077 6.86621 64.6161Z" fill="#929292"/>
<path d="M7.95939 65.4975C8.93884 66.0833 9.82344 66.5075 10.8613 67.265C11.4651 67.707 12.1561 69.2253 12.0988 70.0119C12.1345 70.3426 11.9729 70.5526 11.9729 70.5526C11.9694 70.553 11.0293 68.4522 9.59172 67.4769C8.19575 66.5378 6.95246 64.7471 6.87109 64.621C6.93427 64.6823 7.4488 65.1915 7.95939 65.4975Z" fill="#E6E6E6"/>
<path d="M13.1642 64.0878C13.1636 64.0899 13.1642 64.0914 13.1637 64.0937C13.1252 64.2298 12.6299 66.1945 12.9531 67.6108C13.2818 69.0788 12.2981 71.0785 12.2993 71.079C12.2961 71.08 10.8765 69.1896 11.0211 68.0091C11.1808 66.588 13.1003 64.1617 13.1642 64.0878Z" fill="#929292"/>
<path d="M13.2943 65.3108C13.5784 66.2571 13.9233 67.0342 14.1199 68.1303C14.2337 68.7699 13.5376 70.2271 12.8439 70.7587C12.6002 71.0144 12.2988 71.0789 12.2988 71.0789C12.2977 71.0784 13.2815 69.0788 12.9527 67.6107C12.6293 66.1944 13.1249 64.2298 13.1633 64.0936C13.1625 64.1721 13.147 64.817 13.2943 65.3108Z" fill="#E6E6E6"/>
<path d="M9.61523 69.9461C9.61725 69.9479 9.61933 69.948 9.62134 69.9498C9.7456 70.0526 11.5921 71.5012 13.2632 72.1004C14.9878 72.7242 16.6513 74.554 16.6549 74.5531C16.6555 74.5532 13.9436 74.4029 12.747 73.6318C11.2949 72.7085 9.65689 70.0316 9.61523 69.9461Z" fill="#929292"/>
<path d="M10.981 70.5517C12.1291 70.8986 13.1262 71.1119 14.3901 71.6149C15.1261 71.9084 16.3384 73.2263 16.5742 74.0014C16.7303 74.3139 16.6547 74.553 16.6547 74.553C16.6513 74.5539 14.9876 72.7241 13.263 72.1004C11.5915 71.5011 9.74551 70.0525 9.62109 69.9498C9.70393 69.9946 10.3822 70.3702 10.981 70.5517Z" fill="#E6E6E6"/>
<path d="M14.043 74.7381C14.0454 74.7396 14.0471 74.7395 14.0498 74.7409C14.1969 74.8247 16.3563 75.9973 18.1333 76.3596C19.9687 76.7378 22.035 78.321 22.0381 78.3199C22.0381 78.3199 19.3606 78.5408 18.0044 77.9435C16.3623 77.2298 14.1048 74.8161 14.043 74.7381Z" fill="#929292"/>
<path d="M15.5264 75.146C16.7331 75.3291 17.7591 75.4019 19.1151 75.725C19.9051 75.9137 21.4074 77.0502 21.8254 77.7852C22.0536 78.0729 22.0381 78.3199 22.0381 78.3199C22.0352 78.3209 19.9687 76.7377 18.1334 76.3596C16.3565 75.9973 14.1968 74.8247 14.0498 74.7409C14.142 74.7737 14.897 75.0498 15.5264 75.146Z" fill="#E6E6E6"/>
<path d="M15.4204 68.0362C15.4205 68.0385 15.422 68.0397 15.4221 68.042C15.434 68.1821 15.6765 70.1883 16.5021 71.4883C17.3493 72.8366 17.1549 74.9916 17.1575 74.9917C17.1559 74.9928 15.1131 73.4719 14.8152 72.2989C14.4409 70.889 15.3843 68.1216 15.4204 68.0362Z" fill="#929292"/>
<path d="M15.9882 69.1887C16.6024 70.0406 17.2125 70.7164 17.7988 71.7351C18.1393 72.3294 18.0134 73.8946 17.5543 74.562C17.4182 74.8632 17.1573 74.9917 17.1573 74.9917C17.1549 74.9916 17.3493 72.8366 16.5019 71.4884C15.6763 70.1883 15.434 68.182 15.4219 68.0421C15.4493 68.1181 15.6684 68.7442 15.9882 69.1887Z" fill="#E6E6E6"/>
<path d="M18.9967 72.4814C18.9973 72.4834 18.9992 72.4842 18.9994 72.4862C19.0406 72.6053 19.6893 74.3067 20.6779 75.3286C21.6955 76.3892 21.9987 78.281 22.0011 78.2808C22.0003 78.2814 19.9294 77.2164 19.417 76.2399C18.7879 75.0668 18.984 72.5596 18.9967 72.4814Z" fill="#929292"/>
<path d="M19.7351 73.405C20.4466 74.0638 21.1156 74.572 21.8376 75.3808C22.2576 75.8526 22.4905 77.224 22.245 77.8592C22.1947 78.1371 22.0006 78.2806 22.0006 78.2806C21.9984 78.2809 21.695 76.3889 20.6775 75.3284C19.6891 74.3066 19.0401 72.6052 18.999 72.4861C19.0393 72.5482 19.3645 73.061 19.7351 73.405Z" fill="#E6E6E6"/>
<path d="M31.5615 33.0068C31.5638 33.0085 31.5637 33.0102 31.5658 33.0119C31.6862 33.1199 33.3938 34.6904 34.0638 36.0566C34.7599 37.4718 36.9231 38.8904 36.9234 38.8909C36.9272 38.8912 36.8521 36.7243 35.9445 35.7303C34.8621 34.5309 31.6618 33.051 31.5615 33.0068Z" fill="#929292"/>
<path d="M32.2572 34.1383C32.6437 35.0772 32.868 35.8867 33.4292 36.9253C33.7564 37.5312 35.3111 38.5746 36.2507 38.7999C36.6263 38.9398 36.923 38.8909 36.923 38.8909C36.9226 38.8904 34.7596 37.4719 34.0635 36.0566C33.3936 34.6903 31.6861 33.1199 31.5654 33.012C31.6177 33.0815 32.0547 33.6487 32.2572 34.1383Z" fill="#E6E6E6"/>
<path d="M29.0225 37.4893C29.0252 37.4897 29.0267 37.4908 29.0294 37.4911C29.1986 37.5142 31.6288 37.8641 33.1779 38.6004C34.783 39.3647 37.4375 39.3131 37.4375 39.3131C37.4396 39.3121 35.6635 37.615 34.2449 37.3066C32.5411 36.9325 29.1298 37.4723 29.0225 37.4893Z" fill="#929292"/>
<path d="M30.3965 38.0317C31.4032 38.5841 32.1961 39.1174 33.4118 39.648C34.1209 39.9582 36.0497 39.945 36.8913 39.6089C37.2678 39.5146 37.4373 39.3127 37.4373 39.3127C37.4373 39.3127 34.7828 39.3646 33.1777 38.6003C31.6289 37.864 29.1985 37.5141 29.0293 37.491C29.1204 37.5194 29.8712 37.7441 30.3965 38.0317Z" fill="#E6E6E6"/>
<path d="M36.7949 36.0875C36.7966 36.0895 36.7965 36.0911 36.7983 36.093C36.8989 36.2136 38.3089 37.9634 38.7136 39.3859C39.136 40.859 41.0219 42.5203 41.0217 42.5208C41.0256 42.5213 41.3782 40.3877 40.6629 39.3009C39.8138 37.9906 36.8878 36.143 36.7949 36.0875Z" fill="#929292"/>
<path d="M37.2744 37.2819C37.4804 38.2495 37.5481 39.0704 37.9083 40.1583C38.1187 40.793 39.4707 42.0095 40.3663 42.3477C40.715 42.5319 41.0213 42.5209 41.0213 42.5209C41.0216 42.5204 39.1354 40.8592 38.7132 39.386C38.3087 37.9635 36.8984 36.2138 36.7979 36.0931C36.8369 36.1677 37.1661 36.7773 37.2744 37.2819Z" fill="#E6E6E6"/>
<path d="M33.3877 40.1661C33.3902 40.1667 33.3917 40.1681 33.3944 40.1687C33.5591 40.212 35.9245 40.8552 37.3312 41.7699C38.7879 42.7185 41.4531 42.9991 41.4536 42.9989C41.4563 42.9984 40.013 41.1125 38.6517 40.6335C37.0176 40.0541 33.4976 40.1621 33.3877 40.1661Z" fill="#929292"/>
<path d="M34.6587 40.8678C35.5594 41.5341 36.2492 42.1555 37.3614 42.827C38.0095 43.2192 39.9405 43.4458 40.8489 43.2212C41.2441 43.1757 41.4538 42.9988 41.4538 42.9988C41.4532 42.9991 38.788 42.7185 37.3314 41.7699C35.9248 40.8552 33.5593 40.2121 33.3945 40.1686C33.4802 40.2077 34.1883 40.5205 34.6587 40.8678Z" fill="#E6E6E6"/>
<path d="M41.6836 39.9893C41.6848 39.9916 41.6841 39.993 41.6852 39.9953C41.7496 40.1301 42.6199 42.0797 42.5877 43.5212C42.56 45.0144 43.9125 46.9782 43.9114 46.9788C43.9148 46.9796 44.9168 45.0042 44.5415 43.824C44.1038 42.4021 41.7602 40.0603 41.6836 39.9893Z" fill="#929292"/>
<path d="M41.7998 41.2252C41.7121 42.191 41.5317 42.9899 41.5583 44.1027C41.5747 44.752 42.5396 46.1835 43.3188 46.6838C43.6061 46.929 43.9116 46.9787 43.9116 46.9787C43.9124 46.9781 42.5599 45.0143 42.5877 43.5211C42.6201 42.0796 41.7496 40.1301 41.6852 39.9952C41.7016 40.0741 41.8448 40.7214 41.7998 41.2252Z" fill="#E6E6E6"/>
<path d="M37.0908 43.2275C37.0932 43.2287 37.0943 43.2302 37.0966 43.2313C37.2464 43.3049 39.3911 44.3823 40.5014 45.535C41.6514 46.7295 44.1906 47.5221 44.1911 47.5221C44.1946 47.5221 43.349 45.4298 42.1487 44.704C40.7103 43.8274 37.1999 43.2445 37.0908 43.2275Z" fill="#929292"/>
<path d="M38.1361 44.1481C38.8255 44.9629 39.3187 45.6939 40.2114 46.5555C40.7316 47.0585 42.5635 47.6536 43.5271 47.6167C43.9303 47.6506 44.1914 47.5223 44.1911 47.5222C44.1905 47.5221 41.6514 46.7296 40.5015 45.535C39.3911 44.3822 37.2466 43.3049 37.0967 43.2314C37.1697 43.2855 37.7756 43.7234 38.1361 44.1481Z" fill="#E6E6E6"/>
<path d="M45.2158 44.3562C45.2167 44.3585 45.2156 44.3599 45.2165 44.3622C45.26 44.5014 45.8249 46.51 45.5629 47.9318C45.2984 49.4051 46.338 51.4765 46.3366 51.477C46.3397 51.4779 47.6591 49.6193 47.4722 48.4174C47.262 46.9702 45.282 44.4335 45.2158 44.3562Z" fill="#929292"/>
<path d="M45.1371 45.5881C44.8962 46.5338 44.5892 47.3062 44.4395 48.4091C44.3532 49.0525 45.0917 50.5601 45.791 51.1292C46.0394 51.3989 46.3368 51.4772 46.3368 51.4772C46.3384 51.4767 45.2988 49.4052 45.5631 47.932C45.8251 46.51 45.26 44.5016 45.2168 44.3624C45.2205 44.4417 45.262 45.0947 45.1371 45.5881Z" fill="#E6E6E6"/>
<path d="M40.1025 47.1209C40.1049 47.1223 40.1052 47.124 40.1077 47.1253C40.2465 47.212 42.2257 48.4799 43.1543 49.7253C44.1164 51.0159 46.5284 52.0409 46.5292 52.0413C46.5329 52.0414 46.0224 49.8913 44.9351 49.0596C43.634 48.0558 40.2091 47.1479 40.1025 47.1209Z" fill="#929292"/>
<path d="M41.0057 48.1301C41.5682 49.0012 41.9466 49.7708 42.7033 50.708C43.1442 51.2549 44.8811 52.0168 45.8506 52.072C46.2483 52.1438 46.53 52.0415 46.53 52.0415C46.5291 52.0412 44.117 51.016 43.155 49.7256C42.2266 48.4801 40.2473 47.2123 40.1084 47.1255C40.1729 47.1857 40.7117 47.6759 41.0057 48.1301Z" fill="#E6E6E6"/>
<path d="M47.8921 49.1218C47.892 49.1241 47.891 49.1254 47.8913 49.1278C47.8995 49.2699 47.9527 51.3129 47.3328 52.657C46.6991 54.0505 47.1993 56.2356 47.1971 56.236C47.1991 56.2369 48.9777 54.6323 49.0995 53.4323C49.2621 51.9889 47.9397 49.2071 47.8921 49.1218Z" fill="#929292"/>
<path d="M47.5035 50.3074C47.026 51.1896 46.527 51.8932 46.1006 52.9446C45.8531 53.5579 46.2018 55.1448 46.7473 55.8103C46.9238 56.1127 47.1976 56.2358 47.1976 56.2358C47.1999 56.2356 46.6994 54.0503 47.3333 52.6569C47.9533 51.3127 47.9 49.2698 47.8917 49.1276C47.8759 49.2056 47.752 49.8471 47.5035 50.3074Z" fill="#E6E6E6"/>
<path d="M42.1309 51.0075C42.1327 51.0091 42.1328 51.0108 42.1349 51.0125C42.251 51.1187 43.8944 52.665 44.498 54.0261C45.1245 55.4361 47.2433 56.8164 47.2438 56.8168C47.2477 56.8174 47.2922 54.6388 46.4266 53.6569C45.3946 52.4726 42.2299 51.05 42.1309 51.0075Z" fill="#929292"/>
<path d="M42.7726 52.1327C43.1116 53.0705 43.2931 53.8807 43.8044 54.9141C44.1027 55.517 45.6234 56.5333 46.5655 56.7397C46.9393 56.8724 47.2438 56.8168 47.2438 56.8168C47.2434 56.8164 45.1244 55.4362 44.4979 54.0261C43.8945 52.6649 42.251 51.1187 42.1348 51.0125C42.1839 51.0814 42.5951 51.6438 42.7726 52.1327Z" fill="#E6E6E6"/>
<path d="M49.416 54.0342C49.4156 54.0366 49.4141 54.0376 49.4138 54.0399C49.3882 54.1799 48.945 56.1838 48.0058 57.4072C47.0418 58.6762 47.004 60.8925 47.001 60.8926C47.0021 60.8935 49.1485 59.5849 49.5628 58.4294C50.0775 57.0407 49.4438 54.1245 49.416 54.0342Z" fill="#929292"/>
<path d="M48.744 55.1346C48.0577 55.9256 47.3938 56.5393 46.7182 57.5053C46.3255 58.069 46.2855 59.6754 46.661 60.4087C46.7616 60.7312 47.0011 60.8926 47.0011 60.8926C47.0042 60.8926 47.0421 58.6762 48.0061 57.4072C48.9453 56.1838 49.3885 54.1798 49.4141 54.0399C49.3794 54.1135 49.1015 54.7217 48.744 55.1346Z" fill="#E6E6E6"/>
<path d="M43.2588 55.0208C43.2603 55.0227 43.26 55.0244 43.2616 55.0264C43.3514 55.1473 44.6076 56.9045 44.8741 58.3274C45.1535 59.8016 46.9048 61.4688 46.9047 61.4693C46.9084 61.47 47.4842 59.3411 46.8675 58.2514C46.1368 56.9381 43.3475 55.0768 43.2588 55.0208Z" fill="#929292"/>
<path d="M43.625 56.2176C43.7357 57.1861 43.7204 58.0069 43.9759 59.0955C44.125 59.7304 45.3779 60.9516 46.2555 61.2935C46.5917 61.4789 46.9048 61.4694 46.9048 61.4694C46.9051 61.469 45.1537 59.8017 44.8742 58.3275C44.6076 56.9043 43.3516 55.1476 43.2617 55.0265C43.294 55.1012 43.5664 55.7124 43.625 56.2176Z" fill="#E6E6E6"/>
<path d="M49.4862 59.7559C49.4849 59.7579 49.4832 59.7588 49.4821 59.7609C49.4108 59.89 48.3132 61.7268 46.997 62.7152C45.6422 63.7414 44.8687 65.8774 44.8652 65.877C44.8656 65.8775 47.3742 65.0496 48.1627 64.0204C49.1266 62.7852 49.4842 59.848 49.4862 59.7559Z" fill="#929292"/>
<path d="M48.4677 60.6764C47.5389 61.2969 46.6917 61.7524 45.7176 62.5465C45.151 63.0101 44.5804 64.5541 44.6982 65.3399C44.688 65.6722 44.865 65.877 44.8652 65.877C44.8687 65.8774 45.6424 63.7415 46.997 62.7152C48.3131 61.7268 49.4107 59.8899 49.482 59.7609C49.4236 59.8244 48.9517 60.3522 48.4677 60.6764Z" fill="#E6E6E6"/>
<path d="M43.1826 59.4435C43.1834 59.4457 43.1828 59.4471 43.1835 59.4494C43.2322 59.5846 43.8749 61.5351 43.6623 62.9646C43.4473 64.4459 44.5815 66.4148 44.5802 66.4153C44.5835 66.4163 45.8504 64.4746 45.6153 63.2973C45.3464 61.8796 43.2518 59.5154 43.1826 59.4435Z" fill="#929292"/>
<path d="M43.1461 60.6728C42.9361 61.6302 42.6524 62.4202 42.5407 63.5247C42.4765 64.169 43.2814 65.6044 44.0129 66.1132C44.2751 66.3609 44.5802 66.4152 44.5802 66.4152C44.5815 66.4149 43.4474 64.4457 43.6623 62.9645C43.8749 61.535 43.2322 59.5845 43.1835 59.4494C43.19 59.5281 43.2552 60.1734 43.1461 60.6728Z" fill="#E6E6E6"/>
<path d="M48.12 64.616C48.1186 64.6181 48.117 64.6188 48.1155 64.6208C48.034 64.7469 46.7908 66.5378 45.3948 67.4767C43.9574 68.4521 43.0169 70.553 43.0137 70.5525C43.0138 70.5531 45.5917 69.8141 46.4622 68.8167C47.525 67.6199 48.1111 64.7076 48.12 64.616Z" fill="#929292"/>
<path d="M47.0274 65.4973C46.0479 66.0831 45.1633 66.5073 44.1254 67.2648C43.5216 67.7069 42.8307 69.2251 42.888 70.0117C42.8522 70.3424 43.0138 70.5524 43.0138 70.5524C43.0173 70.5528 43.9574 68.452 45.3949 67.4767C46.7908 66.5377 48.0342 64.7469 48.1156 64.6208C48.0525 64.6821 47.5379 65.1913 47.0274 65.4973Z" fill="#E6E6E6"/>
<path d="M41.8223 64.0876C41.8228 64.0898 41.8222 64.0913 41.8226 64.0935C41.8612 64.2297 42.3565 66.1943 42.0333 67.6107C41.7045 69.0787 42.6883 71.0783 42.687 71.0789C42.6903 71.0799 44.11 69.1894 43.9653 68.0089C43.8057 66.5879 41.8862 64.1616 41.8223 64.0876Z" fill="#929292"/>
<path d="M41.6913 65.3107C41.4073 66.257 41.0624 67.034 40.8658 68.1302C40.7519 68.7697 41.4481 70.2269 42.1417 70.7586C42.3855 71.0143 42.6868 71.0788 42.6868 71.0788C42.688 71.0783 41.7042 69.0787 42.0329 67.6106C42.3562 66.1943 41.8608 64.2297 41.8223 64.0934C41.8231 64.172 41.8386 64.8169 41.6913 65.3107Z" fill="#E6E6E6"/>
<path d="M45.3717 69.946C45.3697 69.9478 45.3676 69.948 45.3656 69.9498C45.2414 70.0526 43.3949 71.5012 41.7237 72.1003C39.9992 72.7241 38.3357 74.5539 38.332 74.553C38.332 74.553 41.0434 74.4028 42.2399 73.6317C43.6921 72.7085 45.3299 70.0315 45.3717 69.946Z" fill="#929292"/>
<path d="M44.0055 70.5518C42.8574 70.8987 41.8603 71.112 40.5963 71.6149C39.8604 71.9085 38.648 73.2263 38.4122 74.0015C38.2562 74.314 38.3318 74.5531 38.3318 74.5531C38.3352 74.554 39.9988 72.7242 41.7234 72.1004C43.395 71.5012 45.2409 70.0526 45.3654 69.9498C45.2825 69.9947 44.6042 70.3703 44.0055 70.5518Z" fill="#E6E6E6"/>
<path d="M40.9433 74.7379C40.9408 74.7393 40.9391 74.7392 40.9365 74.7406C40.7893 74.8245 38.6299 75.9971 36.853 76.3594C35.0175 76.7376 32.9513 78.3207 32.9482 78.3196C32.9482 78.3196 35.6257 78.5405 36.9818 77.9433C38.6239 77.2296 40.8814 74.8159 40.9433 74.7379Z" fill="#929292"/>
<path d="M39.4602 75.1458C38.2535 75.329 37.2274 75.4017 35.8714 75.7248C35.0814 75.9135 33.5791 77.05 33.1611 77.785C32.9329 78.0728 32.9485 78.3197 32.9485 78.3197C32.9513 78.3207 35.0178 76.7376 36.8532 76.3594C38.6301 75.9971 40.7896 74.8245 40.9367 74.7407C40.8445 74.7735 40.0894 75.0496 39.4602 75.1458Z" fill="#E6E6E6"/>
<path d="M39.5641 68.0361C39.5641 68.0385 39.5626 68.0396 39.5625 68.0419C39.5505 68.182 39.308 70.1882 38.4824 71.4882C37.6352 72.8365 37.8296 74.9915 37.8271 74.9916C37.8288 74.9927 39.8715 73.4718 40.1693 72.2988C40.5437 70.8889 39.6003 68.1215 39.5641 68.0361Z" fill="#929292"/>
<path d="M38.9963 69.1886C38.3822 70.0405 37.7719 70.7163 37.1857 71.735C36.8451 72.3293 36.9711 73.8945 37.4302 74.5618C37.5663 74.8631 37.8273 74.9916 37.8273 74.9916C37.8297 74.9915 37.6353 72.8365 38.4826 71.4882C39.3082 70.1882 39.5506 68.1819 39.5627 68.0419C39.5352 68.118 39.3161 68.7441 38.9963 69.1886Z" fill="#E6E6E6"/>
<path d="M35.9888 72.4812C35.9884 72.4831 35.9864 72.4839 35.9861 72.486C35.945 72.6051 35.2962 74.3065 34.3076 75.3283C33.2901 76.3889 32.9869 78.2808 32.9844 78.2806C32.9852 78.2812 35.0561 77.2162 35.5685 76.2397C36.1977 75.0666 36.0016 72.5594 35.9888 72.4812Z" fill="#929292"/>
<path d="M35.2496 73.4048C34.5381 74.0637 33.8692 74.5718 33.1472 75.3806C32.7271 75.8525 32.4942 77.2238 32.7397 77.859C32.7901 78.1369 32.9842 78.2804 32.9842 78.2804C32.9864 78.2807 33.2898 76.3887 34.3072 75.3282C35.2957 74.3064 35.9447 72.6051 35.9858 72.4859C35.9454 72.548 35.6203 73.0608 35.2496 73.4048Z" fill="#E6E6E6"/>
<path d="M32.0192 78.8169C32.0192 79.8732 30.0215 80.7295 27.557 80.7295C25.0925 80.7295 23.0947 79.8732 23.0947 78.8169C23.0947 77.7607 25.0925 76.9044 27.557 76.9044C30.0215 76.9045 32.0192 77.7607 32.0192 78.8169Z" fill="#929292"/>
<path d="M27.5575 80.395C25.125 80.395 23.4297 79.5633 23.4297 78.8168C23.4297 78.0705 25.1249 77.2388 27.5575 77.2388C29.9902 77.2388 31.6854 78.0705 31.6854 78.8168C31.6854 79.5633 29.9902 80.395 27.5575 80.395Z" fill="#E6E6E6"/>
<path d="M18.3779 68.6954V63.4449L18.8699 63.0889C23.5343 59.7134 28.302 55.9047 28.302 53.2437C28.302 52.7981 28.302 51.4418 26.0511 51.4418C24.5949 51.4418 22.7936 52.0744 21.2322 53.1334L20.9296 53.3384H18.925V46.7234L19.6389 46.4121C21.6359 45.5407 24.4339 45 26.9416 45C32.7375 45 36.1978 47.8091 36.1978 52.5141C36.1978 56.507 33.4055 59.6548 30.1318 62.3151H37.1667V68.6954H18.3779Z" fill="#929292"/>
<path d="M35.9771 67.5056H19.5674V64.0526C25.1884 59.9847 29.4916 56.3248 29.4916 53.244C29.4916 49.4924 24.566 49.4351 20.5641 52.1489H20.1149V47.5024C24.3648 45.6481 35.0083 44.6179 35.0083 52.5139C35.0083 56.958 30.8569 60.4393 26.586 63.5048H35.977L35.9771 67.5056Z" fill="#EAEAEA"/>
</svg>
